<?xml version="1.0" encoding="utf-8" standalone="no"?>
<!DOCTYPE svg PUBLIC "-//W3C//DTD SVG 1.1//EN"
  "http://www.w3.org/Graphics/SVG/1.1/DTD/svg11.dtd">
<svg xmlns:xlink="http://www.w3.org/1999/xlink" width="1365.53125pt" height="832.48pt" viewBox="0 0 1365.53125 832.48" xmlns="http://www.w3.org/2000/svg" version="1.1">
 <metadata>
  <rdf:RDF xmlns:dc="http://purl.org/dc/elements/1.1/" xmlns:cc="http://creativecommons.org/ns#" xmlns:rdf="http://www.w3.org/1999/02/22-rdf-syntax-ns#">
   <cc:Work>
    <dc:type rdf:resource="http://purl.org/dc/dcmitype/StillImage"/>
    <dc:date>2024-11-25T14:49:36.404544</dc:date>
    <dc:format>image/svg+xml</dc:format>
    <dc:creator>
     <cc:Agent>
      <dc:title>Matplotlib v3.8.0, https://matplotlib.org/</dc:title>
     </cc:Agent>
    </dc:creator>
   </cc:Work>
  </rdf:RDF>
 </metadata>
 <defs>
  <style type="text/css">*{stroke-linejoin: round; stroke-linecap: butt}</style>
 </defs>
 <g id="figure_1">
  <g id="patch_1">
   <path d="M 0 832.48 
L 1365.53125 832.48 
L 1365.53125 0 
L 0 0 
z
" style="fill: #ffffff"/>
  </g>
  <g id="axes_1">
   <g id="patch_2">
    <path d="M 193.635625 676.6 
L 667.015625 676.6 
L 667.015625 52.56 
L 193.635625 52.56 
z
" style="fill: #ffffff"/>
   </g>
   <g id="PathCollection_1">
    <defs>
     <path id="mf494a77783" d="M 0 5.700877 
C 1.51189 5.700877 2.962061 5.100197 4.031129 4.031129 
C 5.100197 2.962061 5.700877 1.51189 5.700877 0 
C 5.700877 -1.51189 5.100197 -2.962061 4.031129 -4.031129 
C 2.962061 -5.100197 1.51189 -5.700877 0 -5.700877 
C -1.51189 -5.700877 -2.962061 -5.100197 -4.031129 -4.031129 
C -5.100197 -2.962061 -5.700877 -1.51189 -5.700877 0 
C -5.700877 1.51189 -5.100197 2.962061 -4.031129 4.031129 
C -2.962061 5.100197 -1.51189 5.700877 0 5.700877 
z
" style="stroke: #0073e6"/>
    </defs>
    <g clip-path="url(#pf859dd32f9)">
     <use xlink:href="#mf494a77783" x="435.673891" y="343.082869" style="fill: #3399ff; stroke: #0073e6"/>
     <use xlink:href="#mf494a77783" x="345.464815" y="498.319619" style="fill: #3399ff; stroke: #0073e6"/>
     <use xlink:href="#mf494a77783" x="331.227122" y="433.134984" style="fill: #3399ff; stroke: #0073e6"/>
     <use xlink:href="#mf494a77783" x="237.019615" y="532.653138" style="fill: #3399ff; stroke: #0073e6"/>
     <use xlink:href="#mf494a77783" x="284.640649" y="509.104673" style="fill: #3399ff; stroke: #0073e6"/>
     <use xlink:href="#mf494a77783" x="319.616453" y="526.318734" style="fill: #3399ff; stroke: #0073e6"/>
     <use xlink:href="#mf494a77783" x="308.5721" y="509.045294" style="fill: #3399ff; stroke: #0073e6"/>
     <use xlink:href="#mf494a77783" x="361.55851" y="432.506024" style="fill: #3399ff; stroke: #0073e6"/>
     <use xlink:href="#mf494a77783" x="309.189435" y="471.222938" style="fill: #3399ff; stroke: #0073e6"/>
     <use xlink:href="#mf494a77783" x="481.296522" y="325.335384" style="fill: #3399ff; stroke: #0073e6"/>
     <use xlink:href="#mf494a77783" x="452.774433" y="325.27121" style="fill: #3399ff; stroke: #0073e6"/>
     <use xlink:href="#mf494a77783" x="418.561355" y="379.598488" style="fill: #3399ff; stroke: #0073e6"/>
     <use xlink:href="#mf494a77783" x="434.829481" y="372.630588" style="fill: #3399ff; stroke: #0073e6"/>
     <use xlink:href="#mf494a77783" x="324.598268" y="474.738908" style="fill: #3399ff; stroke: #0073e6"/>
     <use xlink:href="#mf494a77783" x="327.96644" y="464.6907" style="fill: #3399ff; stroke: #0073e6"/>
     <use xlink:href="#mf494a77783" x="381.666855" y="414.618407" style="fill: #3399ff; stroke: #0073e6"/>
     <use xlink:href="#mf494a77783" x="367.774625" y="430.17636" style="fill: #3399ff; stroke: #0073e6"/>
     <use xlink:href="#mf494a77783" x="415.97464" y="374.463018" style="fill: #3399ff; stroke: #0073e6"/>
     <use xlink:href="#mf494a77783" x="422.205258" y="367.058922" style="fill: #3399ff; stroke: #0073e6"/>
     <use xlink:href="#mf494a77783" x="350.441556" y="457.912963" style="fill: #3399ff; stroke: #0073e6"/>
     <use xlink:href="#mf494a77783" x="241.889225" y="600.244987" style="fill: #3399ff; stroke: #0073e6"/>
     <use xlink:href="#mf494a77783" x="459.255766" y="310.217166" style="fill: #3399ff; stroke: #0073e6"/>
     <use xlink:href="#mf494a77783" x="364.444309" y="426.989011" style="fill: #3399ff; stroke: #0073e6"/>
     <use xlink:href="#mf494a77783" x="274.33621" y="533.742168" style="fill: #3399ff; stroke: #0073e6"/>
     <use xlink:href="#mf494a77783" x="379.447841" y="416.113851" style="fill: #3399ff; stroke: #0073e6"/>
     <use xlink:href="#mf494a77783" x="366.257102" y="436.979603" style="fill: #3399ff; stroke: #0073e6"/>
     <use xlink:href="#mf494a77783" x="408.484042" y="377.003277" style="fill: #3399ff; stroke: #0073e6"/>
     <use xlink:href="#mf494a77783" x="392.912932" y="395.662021" style="fill: #3399ff; stroke: #0073e6"/>
     <use xlink:href="#mf494a77783" x="345.225357" y="452.79077" style="fill: #3399ff; stroke: #0073e6"/>
     <use xlink:href="#mf494a77783" x="377.197552" y="420.006741" style="fill: #3399ff; stroke: #0073e6"/>
     <use xlink:href="#mf494a77783" x="361.242488" y="444.885439" style="fill: #3399ff; stroke: #0073e6"/>
     <use xlink:href="#mf494a77783" x="408.813809" y="381.73639" style="fill: #3399ff; stroke: #0073e6"/>
     <use xlink:href="#mf494a77783" x="391.687204" y="402.302588" style="fill: #3399ff; stroke: #0073e6"/>
     <use xlink:href="#mf494a77783" x="409.289893" y="361.569485" style="fill: #3399ff; stroke: #0073e6"/>
     <use xlink:href="#mf494a77783" x="327.398916" y="466.134943" style="fill: #3399ff; stroke: #0073e6"/>
     <use xlink:href="#mf494a77783" x="338.525341" y="463.466466" style="fill: #3399ff; stroke: #0073e6"/>
     <use xlink:href="#mf494a77783" x="343.488404" y="484.732829" style="fill: #3399ff; stroke: #0073e6"/>
     <use xlink:href="#mf494a77783" x="488.953637" y="299.401388" style="fill: #3399ff; stroke: #0073e6"/>
     <use xlink:href="#mf494a77783" x="380.993673" y="424.030195" style="fill: #3399ff; stroke: #0073e6"/>
     <use xlink:href="#mf494a77783" x="411.835716" y="383.495418" style="fill: #3399ff; stroke: #0073e6"/>
     <use xlink:href="#mf494a77783" x="394.289008" y="405.891554" style="fill: #3399ff; stroke: #0073e6"/>
     <use xlink:href="#mf494a77783" x="412.60035" y="384.017726" style="fill: #3399ff; stroke: #0073e6"/>
     <use xlink:href="#mf494a77783" x="394.102316" y="399.769108" style="fill: #3399ff; stroke: #0073e6"/>
     <use xlink:href="#mf494a77783" x="412.723142" y="382.354283" style="fill: #3399ff; stroke: #0073e6"/>
     <use xlink:href="#mf494a77783" x="346.921884" y="450.055001" style="fill: #3399ff; stroke: #0073e6"/>
     <use xlink:href="#mf494a77783" x="374.412071" y="452.79077" style="fill: #3399ff; stroke: #0073e6"/>
     <use xlink:href="#mf494a77783" x="413.24365" y="390.546846" style="fill: #3399ff; stroke: #0073e6"/>
     <use xlink:href="#mf494a77783" x="336.975117" y="421.000026" style="fill: #3399ff; stroke: #0073e6"/>
     <use xlink:href="#mf494a77783" x="276.881913" y="544.85279" style="fill: #3399ff; stroke: #0073e6"/>
     <use xlink:href="#mf494a77783" x="351.383388" y="409.074072" style="fill: #3399ff; stroke: #0073e6"/>
     <use xlink:href="#mf494a77783" x="502.686206" y="314.186936" style="fill: #3399ff; stroke: #0073e6"/>
     <use xlink:href="#mf494a77783" x="433.046818" y="368.89062" style="fill: #3399ff; stroke: #0073e6"/>
     <use xlink:href="#mf494a77783" x="537.605964" y="207.276945" style="fill: #3399ff; stroke: #0073e6"/>
     <use xlink:href="#mf494a77783" x="316.458671" y="501.621861" style="fill: #3399ff; stroke: #0073e6"/>
     <use xlink:href="#mf494a77783" x="460.29896" y="329.183749" style="fill: #3399ff; stroke: #0073e6"/>
     <use xlink:href="#mf494a77783" x="542.557542" y="196.279275" style="fill: #3399ff; stroke: #0073e6"/>
     <use xlink:href="#mf494a77783" x="277.847293" y="538.57898" style="fill: #3399ff; stroke: #0073e6"/>
     <use xlink:href="#mf494a77783" x="579.926292" y="193.466413" style="fill: #3399ff; stroke: #0073e6"/>
     <use xlink:href="#mf494a77783" x="627.072133" y="128.915013" style="fill: #3399ff; stroke: #0073e6"/>
     <use xlink:href="#mf494a77783" x="406.315898" y="393.376735" style="fill: #3399ff; stroke: #0073e6"/>
     <use xlink:href="#mf494a77783" x="370.501523" y="442.646091" style="fill: #3399ff; stroke: #0073e6"/>
     <use xlink:href="#mf494a77783" x="469.053462" y="357.288208" style="fill: #3399ff; stroke: #0073e6"/>
     <use xlink:href="#mf494a77783" x="481.095932" y="323.172488" style="fill: #3399ff; stroke: #0073e6"/>
     <use xlink:href="#mf494a77783" x="553.257271" y="277.916035" style="fill: #3399ff; stroke: #0073e6"/>
     <use xlink:href="#mf494a77783" x="407.05975" y="359.230805" style="fill: #3399ff; stroke: #0073e6"/>
     <use xlink:href="#mf494a77783" x="316.609646" y="500.455709" style="fill: #3399ff; stroke: #0073e6"/>
     <use xlink:href="#mf494a77783" x="342.61442" y="481.212432" style="fill: #3399ff; stroke: #0073e6"/>
     <use xlink:href="#mf494a77783" x="349.050154" y="459.591493" style="fill: #3399ff; stroke: #0073e6"/>
     <use xlink:href="#mf494a77783" x="529.670992" y="266.186887" style="fill: #3399ff; stroke: #0073e6"/>
     <use xlink:href="#mf494a77783" x="318.092222" y="540.10733" style="fill: #3399ff; stroke: #0073e6"/>
     <use xlink:href="#mf494a77783" x="340.522626" y="470.144998" style="fill: #3399ff; stroke: #0073e6"/>
     <use xlink:href="#mf494a77783" x="383.20544" y="433.450705" style="fill: #3399ff; stroke: #0073e6"/>
     <use xlink:href="#mf494a77783" x="340.116739" y="456.372346" style="fill: #3399ff; stroke: #0073e6"/>
     <use xlink:href="#mf494a77783" x="536.613136" y="240.012919" style="fill: #3399ff; stroke: #0073e6"/>
     <use xlink:href="#mf494a77783" x="241.889225" y="600.244987" style="fill: #3399ff; stroke: #0073e6"/>
     <use xlink:href="#mf494a77783" x="457.791609" y="308.030155" style="fill: #3399ff; stroke: #0073e6"/>
     <use xlink:href="#mf494a77783" x="490.660458" y="291.739279" style="fill: #3399ff; stroke: #0073e6"/>
     <use xlink:href="#mf494a77783" x="370.8201" y="418.601878" style="fill: #3399ff; stroke: #0073e6"/>
     <use xlink:href="#mf494a77783" x="371.587222" y="430.638688" style="fill: #3399ff; stroke: #0073e6"/>
     <use xlink:href="#mf494a77783" x="363.904848" y="410.11057" style="fill: #3399ff; stroke: #0073e6"/>
     <use xlink:href="#mf494a77783" x="305.844866" y="541.655402" style="fill: #3399ff; stroke: #0073e6"/>
     <use xlink:href="#mf494a77783" x="298.141197" y="521.613272" style="fill: #3399ff; stroke: #0073e6"/>
     <use xlink:href="#mf494a77783" x="278.458594" y="526.318734" style="fill: #3399ff; stroke: #0073e6"/>
     <use xlink:href="#mf494a77783" x="506.259382" y="279.001779" style="fill: #3399ff; stroke: #0073e6"/>
     <use xlink:href="#mf494a77783" x="463.130009" y="329.183749" style="fill: #3399ff; stroke: #0073e6"/>
     <use xlink:href="#mf494a77783" x="516.122644" y="278.305772" style="fill: #3399ff; stroke: #0073e6"/>
     <use xlink:href="#mf494a77783" x="524.645895" y="269.324936" style="fill: #3399ff; stroke: #0073e6"/>
     <use xlink:href="#mf494a77783" x="420.496731" y="368.430067" style="fill: #3399ff; stroke: #0073e6"/>
     <use xlink:href="#mf494a77783" x="589.132196" y="195.864026" style="fill: #3399ff; stroke: #0073e6"/>
     <use xlink:href="#mf494a77783" x="490.060863" y="308.866602" style="fill: #3399ff; stroke: #0073e6"/>
     <use xlink:href="#mf494a77783" x="424.27854" y="344.430064" style="fill: #3399ff; stroke: #0073e6"/>
     <use xlink:href="#mf494a77783" x="515.061651" y="265.873639" style="fill: #3399ff; stroke: #0073e6"/>
     <use xlink:href="#mf494a77783" x="451.328371" y="328.588672" style="fill: #3399ff; stroke: #0073e6"/>
     <use xlink:href="#mf494a77783" x="591.43709" y="236.074929" style="fill: #3399ff; stroke: #0073e6"/>
     <use xlink:href="#mf494a77783" x="376.377054" y="408.046452" style="fill: #3399ff; stroke: #0073e6"/>
     <use xlink:href="#mf494a77783" x="461.508485" y="314.245445" style="fill: #3399ff; stroke: #0073e6"/>
     <use xlink:href="#mf494a77783" x="485.56926" y="318.050685" style="fill: #3399ff; stroke: #0073e6"/>
     <use xlink:href="#mf494a77783" x="489.124023" y="282.903713" style="fill: #3399ff; stroke: #0073e6"/>
     <use xlink:href="#mf494a77783" x="525.308112" y="250.308816" style="fill: #3399ff; stroke: #0073e6"/>
     <use xlink:href="#mf494a77783" x="564.08163" y="231.731373" style="fill: #3399ff; stroke: #0073e6"/>
     <use xlink:href="#mf494a77783" x="309.652204" y="497.508067" style="fill: #3399ff; stroke: #0073e6"/>
     <use xlink:href="#mf494a77783" x="406.510207" y="373.980613" style="fill: #3399ff; stroke: #0073e6"/>
     <use xlink:href="#mf494a77783" x="340.167843" y="450.036849" style="fill: #3399ff; stroke: #0073e6"/>
     <use xlink:href="#mf494a77783" x="378.737973" y="422.14537" style="fill: #3399ff; stroke: #0073e6"/>
     <use xlink:href="#mf494a77783" x="461.133162" y="344.279626" style="fill: #3399ff; stroke: #0073e6"/>
     <use xlink:href="#mf494a77783" x="443.23426" y="362.598412" style="fill: #3399ff; stroke: #0073e6"/>
     <use xlink:href="#mf494a77783" x="537.12855" y="247.089439" style="fill: #3399ff; stroke: #0073e6"/>
     <use xlink:href="#mf494a77783" x="542.415362" y="213.405546" style="fill: #3399ff; stroke: #0073e6"/>
     <use xlink:href="#mf494a77783" x="594.371411" y="170.439748" style="fill: #3399ff; stroke: #0073e6"/>
     <use xlink:href="#mf494a77783" x="490.060863" y="308.866602" style="fill: #3399ff; stroke: #0073e6"/>
     <use xlink:href="#mf494a77783" x="425.642068" y="361.638964" style="fill: #3399ff; stroke: #0073e6"/>
     <use xlink:href="#mf494a77783" x="397.988058" y="391.356547" style="fill: #3399ff; stroke: #0073e6"/>
     <use xlink:href="#mf494a77783" x="643.268536" y="161.562595" style="fill: #3399ff; stroke: #0073e6"/>
     <use xlink:href="#mf494a77783" x="413.748544" y="362.161348" style="fill: #3399ff; stroke: #0073e6"/>
    </g>
   </g>
   <g id="matplotlib.axis_1">
    <g id="xtick_1">
     <g id="line2d_1">
      <defs>
       <path id="md74d5bb979" d="M 0 0 
L 0 3.5 
" style="stroke: #000000; stroke-width: 0.8"/>
      </defs>
      <g>
       <use xlink:href="#md74d5bb979" x="288.108483" y="676.6" style="stroke: #000000; stroke-width: 0.8"/>
      </g>
     </g>
     <g id="text_1">
      <!-- −1 -->
      <g transform="translate(272.149889 704.43125) scale(0.3 -0.3)">
       <defs>
        <path id="TimesNewRomanPSMT-2212" d="M 3484 2000 
L 116 2000 
L 116 2256 
L 3484 2256 
L 3484 2000 
z
" transform="scale(0.015625)"/>
        <path id="TimesNewRomanPSMT-31" d="M 750 3822 
L 1781 4325 
L 1884 4325 
L 1884 747 
Q 1884 391 1914 303 
Q 1944 216 2037 169 
Q 2131 122 2419 116 
L 2419 0 
L 825 0 
L 825 116 
Q 1125 122 1212 167 
Q 1300 213 1334 289 
Q 1369 366 1369 747 
L 1369 3034 
Q 1369 3497 1338 3628 
Q 1316 3728 1258 3775 
Q 1200 3822 1119 3822 
Q 1003 3822 797 3725 
L 750 3822 
z
" transform="scale(0.015625)"/>
       </defs>
       <use xlink:href="#TimesNewRomanPSMT-2212"/>
       <use xlink:href="#TimesNewRomanPSMT-31" x="56.396484"/>
      </g>
     </g>
    </g>
    <g id="xtick_2">
     <g id="line2d_2">
      <g>
       <use xlink:href="#md74d5bb979" x="397.650044" y="676.6" style="stroke: #000000; stroke-width: 0.8"/>
      </g>
     </g>
     <g id="text_2">
      <!-- 0 -->
      <g transform="translate(390.150044 704.43125) scale(0.3 -0.3)">
       <defs>
        <path id="TimesNewRomanPSMT-30" d="M 231 2094 
Q 231 2819 450 3342 
Q 669 3866 1031 4122 
Q 1313 4325 1613 4325 
Q 2100 4325 2488 3828 
Q 2972 3213 2972 2159 
Q 2972 1422 2759 906 
Q 2547 391 2217 158 
Q 1888 -75 1581 -75 
Q 975 -75 572 641 
Q 231 1244 231 2094 
z
M 844 2016 
Q 844 1141 1059 588 
Q 1238 122 1591 122 
Q 1759 122 1940 273 
Q 2122 425 2216 781 
Q 2359 1319 2359 2297 
Q 2359 3022 2209 3506 
Q 2097 3866 1919 4016 
Q 1791 4119 1609 4119 
Q 1397 4119 1231 3928 
Q 1006 3669 925 3112 
Q 844 2556 844 2016 
z
" transform="scale(0.015625)"/>
       </defs>
       <use xlink:href="#TimesNewRomanPSMT-30"/>
      </g>
     </g>
    </g>
    <g id="xtick_3">
     <g id="line2d_3">
      <g>
       <use xlink:href="#md74d5bb979" x="507.191606" y="676.6" style="stroke: #000000; stroke-width: 0.8"/>
      </g>
     </g>
     <g id="text_3">
      <!-- 1 -->
      <g transform="translate(499.691606 704.43125) scale(0.3 -0.3)">
       <use xlink:href="#TimesNewRomanPSMT-31"/>
      </g>
     </g>
    </g>
    <g id="xtick_4">
     <g id="line2d_4">
      <g>
       <use xlink:href="#md74d5bb979" x="616.733167" y="676.6" style="stroke: #000000; stroke-width: 0.8"/>
      </g>
     </g>
     <g id="text_4">
      <!-- 2 -->
      <g transform="translate(609.233167 704.43125) scale(0.3 -0.3)">
       <defs>
        <path id="TimesNewRomanPSMT-32" d="M 2934 816 
L 2638 0 
L 138 0 
L 138 116 
Q 1241 1122 1691 1759 
Q 2141 2397 2141 2925 
Q 2141 3328 1894 3587 
Q 1647 3847 1303 3847 
Q 991 3847 742 3664 
Q 494 3481 375 3128 
L 259 3128 
Q 338 3706 661 4015 
Q 984 4325 1469 4325 
Q 1984 4325 2329 3994 
Q 2675 3663 2675 3213 
Q 2675 2891 2525 2569 
Q 2294 2063 1775 1497 
Q 997 647 803 472 
L 1909 472 
Q 2247 472 2383 497 
Q 2519 522 2628 598 
Q 2738 675 2819 816 
L 2934 816 
z
" transform="scale(0.015625)"/>
       </defs>
       <use xlink:href="#TimesNewRomanPSMT-32"/>
      </g>
     </g>
    </g>
    <g id="text_5">
     <!-- Predicted Ln(Dynamic Viscosity) -->
     <g transform="translate(195.489297 739.151562) scale(0.35 -0.35)">
      <defs>
       <path id="TimesNewRomanPSMT-50" d="M 1313 1984 
L 1313 750 
Q 1313 350 1400 253 
Q 1519 116 1759 116 
L 1922 116 
L 1922 0 
L 106 0 
L 106 116 
L 266 116 
Q 534 116 650 291 
Q 713 388 713 750 
L 713 3488 
Q 713 3888 628 3984 
Q 506 4122 266 4122 
L 106 4122 
L 106 4238 
L 1659 4238 
Q 2228 4238 2556 4120 
Q 2884 4003 3109 3725 
Q 3334 3447 3334 3066 
Q 3334 2547 2992 2222 
Q 2650 1897 2025 1897 
Q 1872 1897 1694 1919 
Q 1516 1941 1313 1984 
z
M 1313 2163 
Q 1478 2131 1606 2115 
Q 1734 2100 1825 2100 
Q 2150 2100 2386 2351 
Q 2622 2603 2622 3003 
Q 2622 3278 2509 3514 
Q 2397 3750 2190 3867 
Q 1984 3984 1722 3984 
Q 1563 3984 1313 3925 
L 1313 2163 
z
" transform="scale(0.015625)"/>
       <path id="TimesNewRomanPSMT-72" d="M 1038 2947 
L 1038 2303 
Q 1397 2947 1775 2947 
Q 1947 2947 2059 2842 
Q 2172 2738 2172 2600 
Q 2172 2478 2090 2393 
Q 2009 2309 1897 2309 
Q 1788 2309 1652 2417 
Q 1516 2525 1450 2525 
Q 1394 2525 1328 2463 
Q 1188 2334 1038 2041 
L 1038 669 
Q 1038 431 1097 309 
Q 1138 225 1241 169 
Q 1344 113 1538 113 
L 1538 0 
L 72 0 
L 72 113 
Q 291 113 397 181 
Q 475 231 506 341 
Q 522 394 522 644 
L 522 1753 
Q 522 2253 501 2348 
Q 481 2444 426 2487 
Q 372 2531 291 2531 
Q 194 2531 72 2484 
L 41 2597 
L 906 2947 
L 1038 2947 
z
" transform="scale(0.015625)"/>
       <path id="TimesNewRomanPSMT-65" d="M 681 1784 
Q 678 1147 991 784 
Q 1303 422 1725 422 
Q 2006 422 2214 576 
Q 2422 731 2563 1106 
L 2659 1044 
Q 2594 616 2278 264 
Q 1963 -88 1488 -88 
Q 972 -88 605 314 
Q 238 716 238 1394 
Q 238 2128 614 2539 
Q 991 2950 1559 2950 
Q 2041 2950 2350 2633 
Q 2659 2316 2659 1784 
L 681 1784 
z
M 681 1966 
L 2006 1966 
Q 1991 2241 1941 2353 
Q 1863 2528 1708 2628 
Q 1553 2728 1384 2728 
Q 1125 2728 920 2526 
Q 716 2325 681 1966 
z
" transform="scale(0.015625)"/>
       <path id="TimesNewRomanPSMT-64" d="M 2222 322 
Q 2013 103 1813 7 
Q 1613 -88 1381 -88 
Q 913 -88 563 304 
Q 213 697 213 1313 
Q 213 1928 600 2439 
Q 988 2950 1597 2950 
Q 1975 2950 2222 2709 
L 2222 3238 
Q 2222 3728 2198 3840 
Q 2175 3953 2125 3993 
Q 2075 4034 2000 4034 
Q 1919 4034 1784 3984 
L 1744 4094 
L 2597 4444 
L 2738 4444 
L 2738 1134 
Q 2738 631 2761 520 
Q 2784 409 2836 365 
Q 2888 322 2956 322 
Q 3041 322 3181 375 
L 3216 266 
L 2366 -88 
L 2222 -88 
L 2222 322 
z
M 2222 541 
L 2222 2016 
Q 2203 2228 2109 2403 
Q 2016 2578 1861 2667 
Q 1706 2756 1559 2756 
Q 1284 2756 1069 2509 
Q 784 2184 784 1559 
Q 784 928 1059 592 
Q 1334 256 1672 256 
Q 1956 256 2222 541 
z
" transform="scale(0.015625)"/>
       <path id="TimesNewRomanPSMT-69" d="M 928 4444 
Q 1059 4444 1151 4351 
Q 1244 4259 1244 4128 
Q 1244 3997 1151 3903 
Q 1059 3809 928 3809 
Q 797 3809 703 3903 
Q 609 3997 609 4128 
Q 609 4259 701 4351 
Q 794 4444 928 4444 
z
M 1188 2947 
L 1188 647 
Q 1188 378 1227 289 
Q 1266 200 1342 156 
Q 1419 113 1622 113 
L 1622 0 
L 231 0 
L 231 113 
Q 441 113 512 153 
Q 584 194 626 287 
Q 669 381 669 647 
L 669 1750 
Q 669 2216 641 2353 
Q 619 2453 572 2492 
Q 525 2531 444 2531 
Q 356 2531 231 2484 
L 188 2597 
L 1050 2947 
L 1188 2947 
z
" transform="scale(0.015625)"/>
       <path id="TimesNewRomanPSMT-63" d="M 2631 1088 
Q 2516 522 2178 217 
Q 1841 -88 1431 -88 
Q 944 -88 581 321 
Q 219 731 219 1428 
Q 219 2103 620 2525 
Q 1022 2947 1584 2947 
Q 2006 2947 2278 2723 
Q 2550 2500 2550 2259 
Q 2550 2141 2473 2067 
Q 2397 1994 2259 1994 
Q 2075 1994 1981 2113 
Q 1928 2178 1911 2362 
Q 1894 2547 1784 2644 
Q 1675 2738 1481 2738 
Q 1169 2738 978 2506 
Q 725 2200 725 1697 
Q 725 1184 976 792 
Q 1228 400 1656 400 
Q 1963 400 2206 609 
Q 2378 753 2541 1131 
L 2631 1088 
z
" transform="scale(0.015625)"/>
       <path id="TimesNewRomanPSMT-74" d="M 1031 3803 
L 1031 2863 
L 1700 2863 
L 1700 2644 
L 1031 2644 
L 1031 788 
Q 1031 509 1111 412 
Q 1191 316 1316 316 
Q 1419 316 1516 380 
Q 1613 444 1666 569 
L 1788 569 
Q 1678 263 1478 108 
Q 1278 -47 1066 -47 
Q 922 -47 784 33 
Q 647 113 581 261 
Q 516 409 516 719 
L 516 2644 
L 63 2644 
L 63 2747 
Q 234 2816 414 2980 
Q 594 3144 734 3369 
Q 806 3488 934 3803 
L 1031 3803 
z
" transform="scale(0.015625)"/>
       <path id="TimesNewRomanPSMT-20" transform="scale(0.015625)"/>
       <path id="TimesNewRomanPSMT-4c" d="M 3669 1172 
L 3772 1150 
L 3409 0 
L 128 0 
L 128 116 
L 288 116 
Q 556 116 672 291 
Q 738 391 738 753 
L 738 3488 
Q 738 3884 650 3984 
Q 528 4122 288 4122 
L 128 4122 
L 128 4238 
L 2047 4238 
L 2047 4122 
Q 1709 4125 1573 4059 
Q 1438 3994 1388 3894 
Q 1338 3794 1338 3416 
L 1338 753 
Q 1338 494 1388 397 
Q 1425 331 1503 300 
Q 1581 269 1991 269 
L 2300 269 
Q 2788 269 2984 341 
Q 3181 413 3343 595 
Q 3506 778 3669 1172 
z
" transform="scale(0.015625)"/>
       <path id="TimesNewRomanPSMT-6e" d="M 1034 2341 
Q 1538 2947 1994 2947 
Q 2228 2947 2397 2830 
Q 2566 2713 2666 2444 
Q 2734 2256 2734 1869 
L 2734 647 
Q 2734 375 2778 278 
Q 2813 200 2889 156 
Q 2966 113 3172 113 
L 3172 0 
L 1756 0 
L 1756 113 
L 1816 113 
Q 2016 113 2095 173 
Q 2175 234 2206 353 
Q 2219 400 2219 647 
L 2219 1819 
Q 2219 2209 2117 2386 
Q 2016 2563 1775 2563 
Q 1403 2563 1034 2156 
L 1034 647 
Q 1034 356 1069 288 
Q 1113 197 1189 155 
Q 1266 113 1500 113 
L 1500 0 
L 84 0 
L 84 113 
L 147 113 
Q 366 113 442 223 
Q 519 334 519 647 
L 519 1709 
Q 519 2225 495 2337 
Q 472 2450 423 2490 
Q 375 2531 294 2531 
Q 206 2531 84 2484 
L 38 2597 
L 900 2947 
L 1034 2947 
L 1034 2341 
z
" transform="scale(0.015625)"/>
       <path id="TimesNewRomanPSMT-28" d="M 1988 -1253 
L 1988 -1369 
Q 1516 -1131 1200 -813 
Q 750 -359 506 256 
Q 263 872 263 1534 
Q 263 2503 741 3301 
Q 1219 4100 1988 4444 
L 1988 4313 
Q 1603 4100 1356 3731 
Q 1109 3363 987 2797 
Q 866 2231 866 1616 
Q 866 947 969 400 
Q 1050 -31 1165 -292 
Q 1281 -553 1476 -793 
Q 1672 -1034 1988 -1253 
z
" transform="scale(0.015625)"/>
       <path id="TimesNewRomanPSMT-44" d="M 109 0 
L 109 116 
L 269 116 
Q 538 116 650 288 
Q 719 391 719 750 
L 719 3488 
Q 719 3884 631 3984 
Q 509 4122 269 4122 
L 109 4122 
L 109 4238 
L 1834 4238 
Q 2784 4238 3279 4022 
Q 3775 3806 4076 3303 
Q 4378 2800 4378 2141 
Q 4378 1256 3841 663 
Q 3238 0 2003 0 
L 109 0 
z
M 1319 306 
Q 1716 219 1984 219 
Q 2709 219 3187 728 
Q 3666 1238 3666 2109 
Q 3666 2988 3187 3494 
Q 2709 4000 1959 4000 
Q 1678 4000 1319 3909 
L 1319 306 
z
" transform="scale(0.015625)"/>
       <path id="TimesNewRomanPSMT-79" d="M 38 2863 
L 1372 2863 
L 1372 2747 
L 1306 2747 
Q 1166 2747 1095 2686 
Q 1025 2625 1025 2534 
Q 1025 2413 1128 2197 
L 1825 753 
L 2466 2334 
Q 2519 2463 2519 2588 
Q 2519 2644 2497 2672 
Q 2472 2706 2419 2726 
Q 2366 2747 2231 2747 
L 2231 2863 
L 3163 2863 
L 3163 2747 
Q 3047 2734 2984 2696 
Q 2922 2659 2847 2556 
Q 2819 2513 2741 2316 
L 1575 -541 
Q 1406 -956 1132 -1168 
Q 859 -1381 606 -1381 
Q 422 -1381 303 -1275 
Q 184 -1169 184 -1031 
Q 184 -900 270 -820 
Q 356 -741 506 -741 
Q 609 -741 788 -809 
Q 913 -856 944 -856 
Q 1038 -856 1148 -759 
Q 1259 -663 1372 -384 
L 1575 113 
L 547 2272 
Q 500 2369 397 2513 
Q 319 2622 269 2659 
Q 197 2709 38 2747 
L 38 2863 
z
" transform="scale(0.015625)"/>
       <path id="TimesNewRomanPSMT-61" d="M 1822 413 
Q 1381 72 1269 19 
Q 1100 -59 909 -59 
Q 613 -59 420 144 
Q 228 347 228 678 
Q 228 888 322 1041 
Q 450 1253 767 1440 
Q 1084 1628 1822 1897 
L 1822 2009 
Q 1822 2438 1686 2597 
Q 1550 2756 1291 2756 
Q 1094 2756 978 2650 
Q 859 2544 859 2406 
L 866 2225 
Q 866 2081 792 2003 
Q 719 1925 600 1925 
Q 484 1925 411 2006 
Q 338 2088 338 2228 
Q 338 2497 613 2722 
Q 888 2947 1384 2947 
Q 1766 2947 2009 2819 
Q 2194 2722 2281 2516 
Q 2338 2381 2338 1966 
L 2338 994 
Q 2338 584 2353 492 
Q 2369 400 2405 369 
Q 2441 338 2488 338 
Q 2538 338 2575 359 
Q 2641 400 2828 588 
L 2828 413 
Q 2478 -56 2159 -56 
Q 2006 -56 1915 50 
Q 1825 156 1822 413 
z
M 1822 616 
L 1822 1706 
Q 1350 1519 1213 1441 
Q 966 1303 859 1153 
Q 753 1003 753 825 
Q 753 600 887 451 
Q 1022 303 1197 303 
Q 1434 303 1822 616 
z
" transform="scale(0.015625)"/>
       <path id="TimesNewRomanPSMT-6d" d="M 1050 2338 
Q 1363 2650 1419 2697 
Q 1559 2816 1721 2881 
Q 1884 2947 2044 2947 
Q 2313 2947 2506 2790 
Q 2700 2634 2766 2338 
Q 3088 2713 3309 2830 
Q 3531 2947 3766 2947 
Q 3994 2947 4170 2830 
Q 4347 2713 4450 2447 
Q 4519 2266 4519 1878 
L 4519 647 
Q 4519 378 4559 278 
Q 4591 209 4675 161 
Q 4759 113 4950 113 
L 4950 0 
L 3538 0 
L 3538 113 
L 3597 113 
Q 3781 113 3884 184 
Q 3956 234 3988 344 
Q 4000 397 4000 647 
L 4000 1878 
Q 4000 2228 3916 2372 
Q 3794 2572 3525 2572 
Q 3359 2572 3192 2489 
Q 3025 2406 2788 2181 
L 2781 2147 
L 2788 2013 
L 2788 647 
Q 2788 353 2820 281 
Q 2853 209 2943 161 
Q 3034 113 3253 113 
L 3253 0 
L 1806 0 
L 1806 113 
Q 2044 113 2133 169 
Q 2222 225 2256 338 
Q 2272 391 2272 647 
L 2272 1878 
Q 2272 2228 2169 2381 
Q 2031 2581 1784 2581 
Q 1616 2581 1450 2491 
Q 1191 2353 1050 2181 
L 1050 647 
Q 1050 366 1089 281 
Q 1128 197 1204 155 
Q 1281 113 1516 113 
L 1516 0 
L 100 0 
L 100 113 
Q 297 113 375 155 
Q 453 197 493 289 
Q 534 381 534 647 
L 534 1741 
Q 534 2213 506 2350 
Q 484 2453 437 2492 
Q 391 2531 309 2531 
Q 222 2531 100 2484 
L 53 2597 
L 916 2947 
L 1050 2947 
L 1050 2338 
z
" transform="scale(0.015625)"/>
       <path id="TimesNewRomanPSMT-56" d="M 4544 4238 
L 4544 4122 
Q 4319 4081 4203 3978 
Q 4038 3825 3909 3509 
L 2431 -97 
L 2316 -97 
L 728 3556 
Q 606 3838 556 3900 
Q 478 3997 364 4051 
Q 250 4106 56 4122 
L 56 4238 
L 1788 4238 
L 1788 4122 
Q 1494 4094 1406 4022 
Q 1319 3950 1319 3838 
Q 1319 3681 1463 3350 
L 2541 866 
L 3541 3319 
Q 3688 3681 3688 3822 
Q 3688 3913 3597 3995 
Q 3506 4078 3291 4113 
Q 3275 4116 3238 4122 
L 3238 4238 
L 4544 4238 
z
" transform="scale(0.015625)"/>
       <path id="TimesNewRomanPSMT-73" d="M 2050 2947 
L 2050 1972 
L 1947 1972 
Q 1828 2431 1642 2597 
Q 1456 2763 1169 2763 
Q 950 2763 815 2647 
Q 681 2531 681 2391 
Q 681 2216 781 2091 
Q 878 1963 1175 1819 
L 1631 1597 
Q 2266 1288 2266 781 
Q 2266 391 1970 151 
Q 1675 -88 1309 -88 
Q 1047 -88 709 6 
Q 606 38 541 38 
Q 469 38 428 -44 
L 325 -44 
L 325 978 
L 428 978 
Q 516 541 762 319 
Q 1009 97 1316 97 
Q 1531 97 1667 223 
Q 1803 350 1803 528 
Q 1803 744 1651 891 
Q 1500 1038 1047 1263 
Q 594 1488 453 1669 
Q 313 1847 313 2119 
Q 313 2472 555 2709 
Q 797 2947 1181 2947 
Q 1350 2947 1591 2875 
Q 1750 2828 1803 2828 
Q 1853 2828 1881 2850 
Q 1909 2872 1947 2947 
L 2050 2947 
z
" transform="scale(0.015625)"/>
       <path id="TimesNewRomanPSMT-6f" d="M 1600 2947 
Q 2250 2947 2644 2453 
Q 2978 2031 2978 1484 
Q 2978 1100 2793 706 
Q 2609 313 2286 112 
Q 1963 -88 1566 -88 
Q 919 -88 538 428 
Q 216 863 216 1403 
Q 216 1797 411 2186 
Q 606 2575 925 2761 
Q 1244 2947 1600 2947 
z
M 1503 2744 
Q 1338 2744 1170 2645 
Q 1003 2547 900 2300 
Q 797 2053 797 1666 
Q 797 1041 1045 587 
Q 1294 134 1700 134 
Q 2003 134 2200 384 
Q 2397 634 2397 1244 
Q 2397 2006 2069 2444 
Q 1847 2744 1503 2744 
z
" transform="scale(0.015625)"/>
       <path id="TimesNewRomanPSMT-29" d="M 144 4313 
L 144 4444 
Q 619 4209 934 3891 
Q 1381 3434 1625 2820 
Q 1869 2206 1869 1541 
Q 1869 572 1392 -226 
Q 916 -1025 144 -1369 
L 144 -1253 
Q 528 -1038 776 -670 
Q 1025 -303 1145 264 
Q 1266 831 1266 1447 
Q 1266 2113 1163 2663 
Q 1084 3094 967 3353 
Q 850 3613 656 3853 
Q 463 4094 144 4313 
z
" transform="scale(0.015625)"/>
      </defs>
      <use xlink:href="#TimesNewRomanPSMT-50"/>
      <use xlink:href="#TimesNewRomanPSMT-72" x="55.615234"/>
      <use xlink:href="#TimesNewRomanPSMT-65" x="88.916016"/>
      <use xlink:href="#TimesNewRomanPSMT-64" x="133.300781"/>
      <use xlink:href="#TimesNewRomanPSMT-69" x="183.300781"/>
      <use xlink:href="#TimesNewRomanPSMT-63" x="211.083984"/>
      <use xlink:href="#TimesNewRomanPSMT-74" x="255.46875"/>
      <use xlink:href="#TimesNewRomanPSMT-65" x="283.251953"/>
      <use xlink:href="#TimesNewRomanPSMT-64" x="327.636719"/>
      <use xlink:href="#TimesNewRomanPSMT-20" x="377.636719"/>
      <use xlink:href="#TimesNewRomanPSMT-4c" x="402.636719"/>
      <use xlink:href="#TimesNewRomanPSMT-6e" x="463.720703"/>
      <use xlink:href="#TimesNewRomanPSMT-28" x="513.720703"/>
      <use xlink:href="#TimesNewRomanPSMT-44" x="547.021484"/>
      <use xlink:href="#TimesNewRomanPSMT-79" x="619.238281"/>
      <use xlink:href="#TimesNewRomanPSMT-6e" x="669.238281"/>
      <use xlink:href="#TimesNewRomanPSMT-61" x="719.238281"/>
      <use xlink:href="#TimesNewRomanPSMT-6d" x="763.623047"/>
      <use xlink:href="#TimesNewRomanPSMT-69" x="841.40625"/>
      <use xlink:href="#TimesNewRomanPSMT-63" x="869.189453"/>
      <use xlink:href="#TimesNewRomanPSMT-20" x="913.574219"/>
      <use xlink:href="#TimesNewRomanPSMT-56" x="936.824219"/>
      <use xlink:href="#TimesNewRomanPSMT-69" x="1003.041016"/>
      <use xlink:href="#TimesNewRomanPSMT-73" x="1030.824219"/>
      <use xlink:href="#TimesNewRomanPSMT-63" x="1069.740234"/>
      <use xlink:href="#TimesNewRomanPSMT-6f" x="1114.125"/>
      <use xlink:href="#TimesNewRomanPSMT-73" x="1164.125"/>
      <use xlink:href="#TimesNewRomanPSMT-69" x="1203.041016"/>
      <use xlink:href="#TimesNewRomanPSMT-74" x="1230.824219"/>
      <use xlink:href="#TimesNewRomanPSMT-79" x="1258.607422"/>
      <use xlink:href="#TimesNewRomanPSMT-29" x="1308.607422"/>
     </g>
    </g>
   </g>
   <g id="matplotlib.axis_2">
    <g id="ytick_1">
     <g id="line2d_5">
      <defs>
       <path id="md1a92907f3" d="M 0 0 
L -3.5 0 
" style="stroke: #000000; stroke-width: 0.8"/>
      </defs>
      <g>
       <use xlink:href="#md1a92907f3" x="193.635625" y="640.315277" style="stroke: #000000; stroke-width: 0.8"/>
      </g>
     </g>
     <g id="text_6">
      <!-- −2 -->
      <g transform="translate(154.718438 650.730902) scale(0.3 -0.3)">
       <use xlink:href="#TimesNewRomanPSMT-2212"/>
       <use xlink:href="#TimesNewRomanPSMT-32" x="56.396484"/>
      </g>
     </g>
    </g>
    <g id="ytick_2">
     <g id="line2d_6">
      <g>
       <use xlink:href="#md1a92907f3" x="193.635625" y="520.34138" style="stroke: #000000; stroke-width: 0.8"/>
      </g>
     </g>
     <g id="text_7">
      <!-- −1 -->
      <g transform="translate(154.718438 530.757005) scale(0.3 -0.3)">
       <use xlink:href="#TimesNewRomanPSMT-2212"/>
       <use xlink:href="#TimesNewRomanPSMT-31" x="56.396484"/>
      </g>
     </g>
    </g>
    <g id="ytick_3">
     <g id="line2d_7">
      <g>
       <use xlink:href="#md1a92907f3" x="193.635625" y="400.367483" style="stroke: #000000; stroke-width: 0.8"/>
      </g>
     </g>
     <g id="text_8">
      <!-- 0 -->
      <g transform="translate(171.635625 410.783108) scale(0.3 -0.3)">
       <use xlink:href="#TimesNewRomanPSMT-30"/>
      </g>
     </g>
    </g>
    <g id="ytick_4">
     <g id="line2d_8">
      <g>
       <use xlink:href="#md1a92907f3" x="193.635625" y="280.393586" style="stroke: #000000; stroke-width: 0.8"/>
      </g>
     </g>
     <g id="text_9">
      <!-- 1 -->
      <g transform="translate(171.635625 290.809211) scale(0.3 -0.3)">
       <use xlink:href="#TimesNewRomanPSMT-31"/>
      </g>
     </g>
    </g>
    <g id="ytick_5">
     <g id="line2d_9">
      <g>
       <use xlink:href="#md1a92907f3" x="193.635625" y="160.419689" style="stroke: #000000; stroke-width: 0.8"/>
      </g>
     </g>
     <g id="text_10">
      <!-- 2 -->
      <g transform="translate(171.635625 170.835314) scale(0.3 -0.3)">
       <use xlink:href="#TimesNewRomanPSMT-32"/>
      </g>
     </g>
    </g>
    <g id="text_11">
     <!-- Actual Ln(Dynamic Viscosity) -->
     <g transform="translate(143.166094 579.977656) rotate(-90) scale(0.35 -0.35)">
      <defs>
       <path id="TimesNewRomanPSMT-41" d="M 2928 1419 
L 1288 1419 
L 1000 750 
Q 894 503 894 381 
Q 894 284 986 211 
Q 1078 138 1384 116 
L 1384 0 
L 50 0 
L 50 116 
Q 316 163 394 238 
Q 553 388 747 847 
L 2238 4334 
L 2347 4334 
L 3822 809 
Q 4000 384 4145 257 
Q 4291 131 4550 116 
L 4550 0 
L 2878 0 
L 2878 116 
Q 3131 128 3220 200 
Q 3309 272 3309 375 
Q 3309 513 3184 809 
L 2928 1419 
z
M 2841 1650 
L 2122 3363 
L 1384 1650 
L 2841 1650 
z
" transform="scale(0.015625)"/>
       <path id="TimesNewRomanPSMT-75" d="M 2709 2863 
L 2709 1128 
Q 2709 631 2732 520 
Q 2756 409 2807 365 
Q 2859 322 2928 322 
Q 3025 322 3147 375 
L 3191 266 
L 2334 -88 
L 2194 -88 
L 2194 519 
Q 1825 119 1631 15 
Q 1438 -88 1222 -88 
Q 981 -88 804 51 
Q 628 191 559 409 
Q 491 628 491 1028 
L 491 2306 
Q 491 2509 447 2587 
Q 403 2666 317 2708 
Q 231 2750 6 2747 
L 6 2863 
L 1009 2863 
L 1009 947 
Q 1009 547 1148 422 
Q 1288 297 1484 297 
Q 1619 297 1789 381 
Q 1959 466 2194 703 
L 2194 2325 
Q 2194 2569 2105 2655 
Q 2016 2741 1734 2747 
L 1734 2863 
L 2709 2863 
z
" transform="scale(0.015625)"/>
       <path id="TimesNewRomanPSMT-6c" d="M 1184 4444 
L 1184 647 
Q 1184 378 1223 290 
Q 1263 203 1344 158 
Q 1425 113 1647 113 
L 1647 0 
L 244 0 
L 244 113 
Q 441 113 512 153 
Q 584 194 625 287 
Q 666 381 666 647 
L 666 3247 
Q 666 3731 644 3842 
Q 622 3953 573 3993 
Q 525 4034 450 4034 
Q 369 4034 244 3984 
L 191 4094 
L 1044 4444 
L 1184 4444 
z
" transform="scale(0.015625)"/>
      </defs>
      <use xlink:href="#TimesNewRomanPSMT-41"/>
      <use xlink:href="#TimesNewRomanPSMT-63" x="72.216797"/>
      <use xlink:href="#TimesNewRomanPSMT-74" x="116.601562"/>
      <use xlink:href="#TimesNewRomanPSMT-75" x="144.384766"/>
      <use xlink:href="#TimesNewRomanPSMT-61" x="194.384766"/>
      <use xlink:href="#TimesNewRomanPSMT-6c" x="238.769531"/>
      <use xlink:href="#TimesNewRomanPSMT-20" x="266.552734"/>
      <use xlink:href="#TimesNewRomanPSMT-4c" x="291.552734"/>
      <use xlink:href="#TimesNewRomanPSMT-6e" x="352.636719"/>
      <use xlink:href="#TimesNewRomanPSMT-28" x="402.636719"/>
      <use xlink:href="#TimesNewRomanPSMT-44" x="435.9375"/>
      <use xlink:href="#TimesNewRomanPSMT-79" x="508.154297"/>
      <use xlink:href="#TimesNewRomanPSMT-6e" x="558.154297"/>
      <use xlink:href="#TimesNewRomanPSMT-61" x="608.154297"/>
      <use xlink:href="#TimesNewRomanPSMT-6d" x="652.539062"/>
      <use xlink:href="#TimesNewRomanPSMT-69" x="730.322266"/>
      <use xlink:href="#TimesNewRomanPSMT-63" x="758.105469"/>
      <use xlink:href="#TimesNewRomanPSMT-20" x="802.490234"/>
      <use xlink:href="#TimesNewRomanPSMT-56" x="825.740234"/>
      <use xlink:href="#TimesNewRomanPSMT-69" x="891.957031"/>
      <use xlink:href="#TimesNewRomanPSMT-73" x="919.740234"/>
      <use xlink:href="#TimesNewRomanPSMT-63" x="958.65625"/>
      <use xlink:href="#TimesNewRomanPSMT-6f" x="1003.041016"/>
      <use xlink:href="#TimesNewRomanPSMT-73" x="1053.041016"/>
      <use xlink:href="#TimesNewRomanPSMT-69" x="1091.957031"/>
      <use xlink:href="#TimesNewRomanPSMT-74" x="1119.740234"/>
      <use xlink:href="#TimesNewRomanPSMT-79" x="1147.523438"/>
      <use xlink:href="#TimesNewRomanPSMT-29" x="1197.523438"/>
     </g>
    </g>
   </g>
   <g id="line2d_10">
    <path d="M 215.152898 600.244987 
L 645.498352 128.915013 
" clip-path="url(#pf859dd32f9)" style="fill: none; stroke-dasharray: 5.55,2.4; stroke-dashoffset: 0; stroke: #ff0000; stroke-width: 1.5"/>
   </g>
   <g id="line2d_11">
    <path d="M 215.152898 552.255428 
L 645.498352 80.925455 
" clip-path="url(#pf859dd32f9)" style="fill: none; stroke-dasharray: 5.55,2.4; stroke-dashoffset: 0; stroke: #008000; stroke-width: 1.5"/>
   </g>
   <g id="line2d_12">
    <path d="M 215.152898 648.234545 
L 645.498352 176.904572 
" clip-path="url(#pf859dd32f9)" style="fill: none; stroke-dasharray: 5.55,2.4; stroke-dashoffset: 0; stroke: #008000; stroke-width: 1.5"/>
   </g>
   <g id="patch_3">
    <path d="M 193.635625 676.6 
L 193.635625 52.56 
" style="fill: none; stroke: #000000; stroke-width: 0.8; stroke-linejoin: miter; stroke-linecap: square"/>
   </g>
   <g id="patch_4">
    <path d="M 667.015625 676.6 
L 667.015625 52.56 
" style="fill: none; stroke: #000000; stroke-width: 0.8; stroke-linejoin: miter; stroke-linecap: square"/>
   </g>
   <g id="patch_5">
    <path d="M 193.635625 676.6 
L 667.015625 676.6 
" style="fill: none; stroke: #000000; stroke-width: 0.8; stroke-linejoin: miter; stroke-linecap: square"/>
   </g>
   <g id="patch_6">
    <path d="M 193.635625 52.56 
L 667.015625 52.56 
" style="fill: none; stroke: #000000; stroke-width: 0.8; stroke-linejoin: miter; stroke-linecap: square"/>
   </g>
  </g>
  <g id="axes_2">
   <g id="patch_7">
    <path d="M 774.585625 676.6 
L 1247.965625 676.6 
L 1247.965625 52.56 
L 774.585625 52.56 
z
" style="fill: #ffffff"/>
   </g>
   <g id="PathCollection_2">
    <defs>
     <path id="m4e9e4a81ac" d="M 0 5.700877 
C 1.51189 5.700877 2.962061 5.100197 4.031129 4.031129 
C 5.100197 2.962061 5.700877 1.51189 5.700877 0 
C 5.700877 -1.51189 5.100197 -2.962061 4.031129 -4.031129 
C 2.962061 -5.100197 1.51189 -5.700877 0 -5.700877 
C -1.51189 -5.700877 -2.962061 -5.100197 -4.031129 -4.031129 
C -5.100197 -2.962061 -5.700877 -1.51189 -5.700877 0 
C -5.700877 1.51189 -5.100197 2.962061 -4.031129 4.031129 
C -2.962061 5.100197 -1.51189 5.700877 0 5.700877 
z
" style="stroke: #cc0000"/>
    </defs>
    <g clip-path="url(#p6c80bf613c)">
     <use xlink:href="#m4e9e4a81ac" x="802.397714" y="634.340636" style="fill: #ff6666; stroke: #cc0000"/>
     <use xlink:href="#m4e9e4a81ac" x="860.715472" y="555.587825" style="fill: #ff6666; stroke: #cc0000"/>
     <use xlink:href="#m4e9e4a81ac" x="871.142466" y="549.624688" style="fill: #ff6666; stroke: #cc0000"/>
     <use xlink:href="#m4e9e4a81ac" x="801.458073" y="645.817202" style="fill: #ff6666; stroke: #cc0000"/>
     <use xlink:href="#m4e9e4a81ac" x="836.178552" y="624.816864" style="fill: #ff6666; stroke: #cc0000"/>
     <use xlink:href="#m4e9e4a81ac" x="836.349736" y="626.741328" style="fill: #ff6666; stroke: #cc0000"/>
     <use xlink:href="#m4e9e4a81ac" x="832.30855" y="599.194164" style="fill: #ff6666; stroke: #cc0000"/>
     <use xlink:href="#m4e9e4a81ac" x="831.118997" y="600.53716" style="fill: #ff6666; stroke: #cc0000"/>
     <use xlink:href="#m4e9e4a81ac" x="796.102898" y="633.757068" style="fill: #ff6666; stroke: #cc0000"/>
     <use xlink:href="#m4e9e4a81ac" x="844.944259" y="583.690377" style="fill: #ff6666; stroke: #cc0000"/>
     <use xlink:href="#m4e9e4a81ac" x="844.250916" y="584.977932" style="fill: #ff6666; stroke: #cc0000"/>
     <use xlink:href="#m4e9e4a81ac" x="834.114926" y="595.556352" style="fill: #ff6666; stroke: #cc0000"/>
     <use xlink:href="#m4e9e4a81ac" x="798.412894" y="624.491047" style="fill: #ff6666; stroke: #cc0000"/>
     <use xlink:href="#m4e9e4a81ac" x="809.371576" y="638.313453" style="fill: #ff6666; stroke: #cc0000"/>
     <use xlink:href="#m4e9e4a81ac" x="811.275801" y="622.294101" style="fill: #ff6666; stroke: #cc0000"/>
     <use xlink:href="#m4e9e4a81ac" x="910.3459" y="499.598789" style="fill: #ff6666; stroke: #cc0000"/>
     <use xlink:href="#m4e9e4a81ac" x="877.528123" y="539.55497" style="fill: #ff6666; stroke: #cc0000"/>
     <use xlink:href="#m4e9e4a81ac" x="821.485589" y="608.30499" style="fill: #ff6666; stroke: #cc0000"/>
     <use xlink:href="#m4e9e4a81ac" x="805.218042" y="638.243851" style="fill: #ff6666; stroke: #cc0000"/>
     <use xlink:href="#m4e9e4a81ac" x="828.242857" y="601.947529" style="fill: #ff6666; stroke: #cc0000"/>
     <use xlink:href="#m4e9e4a81ac" x="829.648959" y="599.680433" style="fill: #ff6666; stroke: #cc0000"/>
     <use xlink:href="#m4e9e4a81ac" x="837.260876" y="602.174427" style="fill: #ff6666; stroke: #cc0000"/>
     <use xlink:href="#m4e9e4a81ac" x="868.321367" y="561.716725" style="fill: #ff6666; stroke: #cc0000"/>
     <use xlink:href="#m4e9e4a81ac" x="823.780295" y="607.258666" style="fill: #ff6666; stroke: #cc0000"/>
     <use xlink:href="#m4e9e4a81ac" x="837.60115" y="546.508293" style="fill: #ff6666; stroke: #cc0000"/>
     <use xlink:href="#m4e9e4a81ac" x="828.328558" y="620.932654" style="fill: #ff6666; stroke: #cc0000"/>
     <use xlink:href="#m4e9e4a81ac" x="834.407629" y="632.678205" style="fill: #ff6666; stroke: #cc0000"/>
     <use xlink:href="#m4e9e4a81ac" x="860.715472" y="555.587825" style="fill: #ff6666; stroke: #cc0000"/>
     <use xlink:href="#m4e9e4a81ac" x="871.142466" y="549.624688" style="fill: #ff6666; stroke: #cc0000"/>
     <use xlink:href="#m4e9e4a81ac" x="845.722104" y="593.75254" style="fill: #ff6666; stroke: #cc0000"/>
     <use xlink:href="#m4e9e4a81ac" x="836.178552" y="624.816864" style="fill: #ff6666; stroke: #cc0000"/>
     <use xlink:href="#m4e9e4a81ac" x="840.551627" y="631.009249" style="fill: #ff6666; stroke: #cc0000"/>
     <use xlink:href="#m4e9e4a81ac" x="836.349736" y="626.741328" style="fill: #ff6666; stroke: #cc0000"/>
     <use xlink:href="#m4e9e4a81ac" x="812.250454" y="625.051525" style="fill: #ff6666; stroke: #cc0000"/>
     <use xlink:href="#m4e9e4a81ac" x="828.85668" y="623.486996" style="fill: #ff6666; stroke: #cc0000"/>
     <use xlink:href="#m4e9e4a81ac" x="873.730935" y="558.845451" style="fill: #ff6666; stroke: #cc0000"/>
     <use xlink:href="#m4e9e4a81ac" x="857.013517" y="546.073989" style="fill: #ff6666; stroke: #cc0000"/>
     <use xlink:href="#m4e9e4a81ac" x="831.118997" y="600.53716" style="fill: #ff6666; stroke: #cc0000"/>
     <use xlink:href="#m4e9e4a81ac" x="796.102898" y="633.757068" style="fill: #ff6666; stroke: #cc0000"/>
     <use xlink:href="#m4e9e4a81ac" x="816.643944" y="591.915845" style="fill: #ff6666; stroke: #cc0000"/>
     <use xlink:href="#m4e9e4a81ac" x="883.048354" y="543.795438" style="fill: #ff6666; stroke: #cc0000"/>
     <use xlink:href="#m4e9e4a81ac" x="817.937263" y="565.2731" style="fill: #ff6666; stroke: #cc0000"/>
     <use xlink:href="#m4e9e4a81ac" x="844.250916" y="584.977932" style="fill: #ff6666; stroke: #cc0000"/>
     <use xlink:href="#m4e9e4a81ac" x="809.487673" y="647.666842" style="fill: #ff6666; stroke: #cc0000"/>
     <use xlink:href="#m4e9e4a81ac" x="799.452725" y="612.228735" style="fill: #ff6666; stroke: #cc0000"/>
     <use xlink:href="#m4e9e4a81ac" x="815.354371" y="567.159726" style="fill: #ff6666; stroke: #cc0000"/>
     <use xlink:href="#m4e9e4a81ac" x="827.956705" y="567.709493" style="fill: #ff6666; stroke: #cc0000"/>
     <use xlink:href="#m4e9e4a81ac" x="836.074384" y="551.145815" style="fill: #ff6666; stroke: #cc0000"/>
     <use xlink:href="#m4e9e4a81ac" x="866.253104" y="595.990772" style="fill: #ff6666; stroke: #cc0000"/>
     <use xlink:href="#m4e9e4a81ac" x="870.551645" y="602.203196" style="fill: #ff6666; stroke: #cc0000"/>
     <use xlink:href="#m4e9e4a81ac" x="1226.448352" y="602.584289" style="fill: #ff6666; stroke: #cc0000"/>
     <use xlink:href="#m4e9e4a81ac" x="856.420219" y="549.170842" style="fill: #ff6666; stroke: #cc0000"/>
     <use xlink:href="#m4e9e4a81ac" x="947.674177" y="495.758915" style="fill: #ff6666; stroke: #cc0000"/>
     <use xlink:href="#m4e9e4a81ac" x="887.558272" y="605.205829" style="fill: #ff6666; stroke: #cc0000"/>
     <use xlink:href="#m4e9e4a81ac" x="838.56348" y="616.012073" style="fill: #ff6666; stroke: #cc0000"/>
     <use xlink:href="#m4e9e4a81ac" x="837.334953" y="613.88084" style="fill: #ff6666; stroke: #cc0000"/>
     <use xlink:href="#m4e9e4a81ac" x="879.981509" y="587.976745" style="fill: #ff6666; stroke: #cc0000"/>
     <use xlink:href="#m4e9e4a81ac" x="908.917531" y="589.489022" style="fill: #ff6666; stroke: #cc0000"/>
     <use xlink:href="#m4e9e4a81ac" x="867.435483" y="532.378198" style="fill: #ff6666; stroke: #cc0000"/>
     <use xlink:href="#m4e9e4a81ac" x="910.3459" y="499.598789" style="fill: #ff6666; stroke: #cc0000"/>
     <use xlink:href="#m4e9e4a81ac" x="877.528123" y="539.55497" style="fill: #ff6666; stroke: #cc0000"/>
     <use xlink:href="#m4e9e4a81ac" x="821.485589" y="608.30499" style="fill: #ff6666; stroke: #cc0000"/>
     <use xlink:href="#m4e9e4a81ac" x="829.648959" y="599.680433" style="fill: #ff6666; stroke: #cc0000"/>
     <use xlink:href="#m4e9e4a81ac" x="837.260876" y="602.174427" style="fill: #ff6666; stroke: #cc0000"/>
     <use xlink:href="#m4e9e4a81ac" x="870.411605" y="519.996977" style="fill: #ff6666; stroke: #cc0000"/>
     <use xlink:href="#m4e9e4a81ac" x="828.899531" y="566.601976" style="fill: #ff6666; stroke: #cc0000"/>
     <use xlink:href="#m4e9e4a81ac" x="823.780295" y="607.258666" style="fill: #ff6666; stroke: #cc0000"/>
     <use xlink:href="#m4e9e4a81ac" x="853.73916" y="564.758832" style="fill: #ff6666; stroke: #cc0000"/>
     <use xlink:href="#m4e9e4a81ac" x="874.70947" y="534.292138" style="fill: #ff6666; stroke: #cc0000"/>
     <use xlink:href="#m4e9e4a81ac" x="884.033411" y="518.063862" style="fill: #ff6666; stroke: #cc0000"/>
     <use xlink:href="#m4e9e4a81ac" x="916.975759" y="531.297422" style="fill: #ff6666; stroke: #cc0000"/>
     <use xlink:href="#m4e9e4a81ac" x="835.492306" y="578.667534" style="fill: #ff6666; stroke: #cc0000"/>
     <use xlink:href="#m4e9e4a81ac" x="836.999724" y="574.283896" style="fill: #ff6666; stroke: #cc0000"/>
     <use xlink:href="#m4e9e4a81ac" x="858.43593" y="564.231151" style="fill: #ff6666; stroke: #cc0000"/>
     <use xlink:href="#m4e9e4a81ac" x="833.059306" y="579.052737" style="fill: #ff6666; stroke: #cc0000"/>
    </g>
   </g>
   <g id="matplotlib.axis_3">
    <g id="xtick_5">
     <g id="line2d_13">
      <g>
       <use xlink:href="#md74d5bb979" x="822.162697" y="676.6" style="stroke: #000000; stroke-width: 0.8"/>
      </g>
     </g>
     <g id="text_12">
      <!-- 0 -->
      <g transform="translate(814.662697 704.43125) scale(0.3 -0.3)">
       <use xlink:href="#TimesNewRomanPSMT-30"/>
      </g>
     </g>
    </g>
    <g id="xtick_6">
     <g id="line2d_14">
      <g>
       <use xlink:href="#md74d5bb979" x="950.594619" y="676.6" style="stroke: #000000; stroke-width: 0.8"/>
      </g>
     </g>
     <g id="text_13">
      <!-- 5 -->
      <g transform="translate(943.094619 704.43125) scale(0.3 -0.3)">
       <defs>
        <path id="TimesNewRomanPSMT-35" d="M 2778 4238 
L 2534 3706 
L 1259 3706 
L 981 3138 
Q 1809 3016 2294 2522 
Q 2709 2097 2709 1522 
Q 2709 1188 2573 903 
Q 2438 619 2231 419 
Q 2025 219 1772 97 
Q 1413 -75 1034 -75 
Q 653 -75 479 54 
Q 306 184 306 341 
Q 306 428 378 495 
Q 450 563 559 563 
Q 641 563 702 538 
Q 763 513 909 409 
Q 1144 247 1384 247 
Q 1750 247 2026 523 
Q 2303 800 2303 1197 
Q 2303 1581 2056 1914 
Q 1809 2247 1375 2428 
Q 1034 2569 447 2591 
L 1259 4238 
L 2778 4238 
z
" transform="scale(0.015625)"/>
       </defs>
       <use xlink:href="#TimesNewRomanPSMT-35"/>
      </g>
     </g>
    </g>
    <g id="xtick_7">
     <g id="line2d_15">
      <g>
       <use xlink:href="#md74d5bb979" x="1079.026541" y="676.6" style="stroke: #000000; stroke-width: 0.8"/>
      </g>
     </g>
     <g id="text_14">
      <!-- 10 -->
      <g transform="translate(1064.026541 704.43125) scale(0.3 -0.3)">
       <use xlink:href="#TimesNewRomanPSMT-31"/>
       <use xlink:href="#TimesNewRomanPSMT-30" x="50"/>
      </g>
     </g>
    </g>
    <g id="xtick_8">
     <g id="line2d_16">
      <g>
       <use xlink:href="#md74d5bb979" x="1207.458463" y="676.6" style="stroke: #000000; stroke-width: 0.8"/>
      </g>
     </g>
     <g id="text_15">
      <!-- 15 -->
      <g transform="translate(1192.458463 704.43125) scale(0.3 -0.3)">
       <use xlink:href="#TimesNewRomanPSMT-31"/>
       <use xlink:href="#TimesNewRomanPSMT-35" x="50"/>
      </g>
     </g>
    </g>
    <g id="text_16">
     <!-- Predicted Ln(Dynamic Viscosity) -->
     <g transform="translate(776.439297 739.151562) scale(0.35 -0.35)">
      <use xlink:href="#TimesNewRomanPSMT-50"/>
      <use xlink:href="#TimesNewRomanPSMT-72" x="55.615234"/>
      <use xlink:href="#TimesNewRomanPSMT-65" x="88.916016"/>
      <use xlink:href="#TimesNewRomanPSMT-64" x="133.300781"/>
      <use xlink:href="#TimesNewRomanPSMT-69" x="183.300781"/>
      <use xlink:href="#TimesNewRomanPSMT-63" x="211.083984"/>
      <use xlink:href="#TimesNewRomanPSMT-74" x="255.46875"/>
      <use xlink:href="#TimesNewRomanPSMT-65" x="283.251953"/>
      <use xlink:href="#TimesNewRomanPSMT-64" x="327.636719"/>
      <use xlink:href="#TimesNewRomanPSMT-20" x="377.636719"/>
      <use xlink:href="#TimesNewRomanPSMT-4c" x="402.636719"/>
      <use xlink:href="#TimesNewRomanPSMT-6e" x="463.720703"/>
      <use xlink:href="#TimesNewRomanPSMT-28" x="513.720703"/>
      <use xlink:href="#TimesNewRomanPSMT-44" x="547.021484"/>
      <use xlink:href="#TimesNewRomanPSMT-79" x="619.238281"/>
      <use xlink:href="#TimesNewRomanPSMT-6e" x="669.238281"/>
      <use xlink:href="#TimesNewRomanPSMT-61" x="719.238281"/>
      <use xlink:href="#TimesNewRomanPSMT-6d" x="763.623047"/>
      <use xlink:href="#TimesNewRomanPSMT-69" x="841.40625"/>
      <use xlink:href="#TimesNewRomanPSMT-63" x="869.189453"/>
      <use xlink:href="#TimesNewRomanPSMT-20" x="913.574219"/>
      <use xlink:href="#TimesNewRomanPSMT-56" x="936.824219"/>
      <use xlink:href="#TimesNewRomanPSMT-69" x="1003.041016"/>
      <use xlink:href="#TimesNewRomanPSMT-73" x="1030.824219"/>
      <use xlink:href="#TimesNewRomanPSMT-63" x="1069.740234"/>
      <use xlink:href="#TimesNewRomanPSMT-6f" x="1114.125"/>
      <use xlink:href="#TimesNewRomanPSMT-73" x="1164.125"/>
      <use xlink:href="#TimesNewRomanPSMT-69" x="1203.041016"/>
      <use xlink:href="#TimesNewRomanPSMT-74" x="1230.824219"/>
      <use xlink:href="#TimesNewRomanPSMT-79" x="1258.607422"/>
      <use xlink:href="#TimesNewRomanPSMT-29" x="1308.607422"/>
     </g>
    </g>
   </g>
   <g id="matplotlib.axis_4">
    <g id="ytick_6">
     <g id="line2d_17">
      <g>
       <use xlink:href="#md1a92907f3" x="774.585625" y="613.88084" style="stroke: #000000; stroke-width: 0.8"/>
      </g>
     </g>
     <g id="text_17">
      <!-- 0.0 -->
      <g transform="translate(730.085625 624.296465) scale(0.3 -0.3)">
       <defs>
        <path id="TimesNewRomanPSMT-2e" d="M 800 606 
Q 947 606 1047 504 
Q 1147 403 1147 259 
Q 1147 116 1045 14 
Q 944 -88 800 -88 
Q 656 -88 554 14 
Q 453 116 453 259 
Q 453 406 554 506 
Q 656 606 800 606 
z
" transform="scale(0.015625)"/>
       </defs>
       <use xlink:href="#TimesNewRomanPSMT-30"/>
       <use xlink:href="#TimesNewRomanPSMT-2e" x="50"/>
       <use xlink:href="#TimesNewRomanPSMT-30" x="75"/>
      </g>
     </g>
    </g>
    <g id="ytick_7">
     <g id="line2d_18">
      <g>
       <use xlink:href="#md1a92907f3" x="774.585625" y="529.227225" style="stroke: #000000; stroke-width: 0.8"/>
      </g>
     </g>
     <g id="text_18">
      <!-- 2.5 -->
      <g transform="translate(730.085625 539.64285) scale(0.3 -0.3)">
       <use xlink:href="#TimesNewRomanPSMT-32"/>
       <use xlink:href="#TimesNewRomanPSMT-2e" x="50"/>
       <use xlink:href="#TimesNewRomanPSMT-35" x="75"/>
      </g>
     </g>
    </g>
    <g id="ytick_8">
     <g id="line2d_19">
      <g>
       <use xlink:href="#md1a92907f3" x="774.585625" y="444.57361" style="stroke: #000000; stroke-width: 0.8"/>
      </g>
     </g>
     <g id="text_19">
      <!-- 5.0 -->
      <g transform="translate(730.085625 454.989235) scale(0.3 -0.3)">
       <use xlink:href="#TimesNewRomanPSMT-35"/>
       <use xlink:href="#TimesNewRomanPSMT-2e" x="50"/>
       <use xlink:href="#TimesNewRomanPSMT-30" x="75"/>
      </g>
     </g>
    </g>
    <g id="ytick_9">
     <g id="line2d_20">
      <g>
       <use xlink:href="#md1a92907f3" x="774.585625" y="359.919995" style="stroke: #000000; stroke-width: 0.8"/>
      </g>
     </g>
     <g id="text_20">
      <!-- 7.5 -->
      <g transform="translate(730.085625 370.33562) scale(0.3 -0.3)">
       <defs>
        <path id="TimesNewRomanPSMT-37" d="M 644 4238 
L 2916 4238 
L 2916 4119 
L 1503 -88 
L 1153 -88 
L 2419 3728 
L 1253 3728 
Q 900 3728 750 3644 
Q 488 3500 328 3200 
L 238 3234 
L 644 4238 
z
" transform="scale(0.015625)"/>
       </defs>
       <use xlink:href="#TimesNewRomanPSMT-37"/>
       <use xlink:href="#TimesNewRomanPSMT-2e" x="50"/>
       <use xlink:href="#TimesNewRomanPSMT-35" x="75"/>
      </g>
     </g>
    </g>
    <g id="ytick_10">
     <g id="line2d_21">
      <g>
       <use xlink:href="#md1a92907f3" x="774.585625" y="275.26638" style="stroke: #000000; stroke-width: 0.8"/>
      </g>
     </g>
     <g id="text_21">
      <!-- 10.0 -->
      <g transform="translate(715.085625 285.682005) scale(0.3 -0.3)">
       <use xlink:href="#TimesNewRomanPSMT-31"/>
       <use xlink:href="#TimesNewRomanPSMT-30" x="50"/>
       <use xlink:href="#TimesNewRomanPSMT-2e" x="100"/>
       <use xlink:href="#TimesNewRomanPSMT-30" x="125"/>
      </g>
     </g>
    </g>
    <g id="ytick_11">
     <g id="line2d_22">
      <g>
       <use xlink:href="#md1a92907f3" x="774.585625" y="190.612765" style="stroke: #000000; stroke-width: 0.8"/>
      </g>
     </g>
     <g id="text_22">
      <!-- 12.5 -->
      <g transform="translate(715.085625 201.02839) scale(0.3 -0.3)">
       <use xlink:href="#TimesNewRomanPSMT-31"/>
       <use xlink:href="#TimesNewRomanPSMT-32" x="50"/>
       <use xlink:href="#TimesNewRomanPSMT-2e" x="100"/>
       <use xlink:href="#TimesNewRomanPSMT-35" x="125"/>
      </g>
     </g>
    </g>
    <g id="ytick_12">
     <g id="line2d_23">
      <g>
       <use xlink:href="#md1a92907f3" x="774.585625" y="105.959149" style="stroke: #000000; stroke-width: 0.8"/>
      </g>
     </g>
     <g id="text_23">
      <!-- 15.0 -->
      <g transform="translate(715.085625 116.374774) scale(0.3 -0.3)">
       <use xlink:href="#TimesNewRomanPSMT-31"/>
       <use xlink:href="#TimesNewRomanPSMT-35" x="50"/>
       <use xlink:href="#TimesNewRomanPSMT-2e" x="100"/>
       <use xlink:href="#TimesNewRomanPSMT-30" x="125"/>
      </g>
     </g>
    </g>
    <g id="text_24">
     <!-- Actual Ln(Dynamic Viscosity) -->
     <g transform="translate(703.533281 579.977656) rotate(-90) scale(0.35 -0.35)">
      <use xlink:href="#TimesNewRomanPSMT-41"/>
      <use xlink:href="#TimesNewRomanPSMT-63" x="72.216797"/>
      <use xlink:href="#TimesNewRomanPSMT-74" x="116.601562"/>
      <use xlink:href="#TimesNewRomanPSMT-75" x="144.384766"/>
      <use xlink:href="#TimesNewRomanPSMT-61" x="194.384766"/>
      <use xlink:href="#TimesNewRomanPSMT-6c" x="238.769531"/>
      <use xlink:href="#TimesNewRomanPSMT-20" x="266.552734"/>
      <use xlink:href="#TimesNewRomanPSMT-4c" x="291.552734"/>
      <use xlink:href="#TimesNewRomanPSMT-6e" x="352.636719"/>
      <use xlink:href="#TimesNewRomanPSMT-28" x="402.636719"/>
      <use xlink:href="#TimesNewRomanPSMT-44" x="435.9375"/>
      <use xlink:href="#TimesNewRomanPSMT-79" x="508.154297"/>
      <use xlink:href="#TimesNewRomanPSMT-6e" x="558.154297"/>
      <use xlink:href="#TimesNewRomanPSMT-61" x="608.154297"/>
      <use xlink:href="#TimesNewRomanPSMT-6d" x="652.539062"/>
      <use xlink:href="#TimesNewRomanPSMT-69" x="730.322266"/>
      <use xlink:href="#TimesNewRomanPSMT-63" x="758.105469"/>
      <use xlink:href="#TimesNewRomanPSMT-20" x="802.490234"/>
      <use xlink:href="#TimesNewRomanPSMT-56" x="825.740234"/>
      <use xlink:href="#TimesNewRomanPSMT-69" x="891.957031"/>
      <use xlink:href="#TimesNewRomanPSMT-73" x="919.740234"/>
      <use xlink:href="#TimesNewRomanPSMT-63" x="958.65625"/>
      <use xlink:href="#TimesNewRomanPSMT-6f" x="1003.041016"/>
      <use xlink:href="#TimesNewRomanPSMT-73" x="1053.041016"/>
      <use xlink:href="#TimesNewRomanPSMT-69" x="1091.957031"/>
      <use xlink:href="#TimesNewRomanPSMT-74" x="1119.740234"/>
      <use xlink:href="#TimesNewRomanPSMT-79" x="1147.523438"/>
      <use xlink:href="#TimesNewRomanPSMT-29" x="1197.523438"/>
     </g>
    </g>
   </g>
   <g id="line2d_24">
    <path d="M 796.102898 648.234545 
L 1226.448352 80.925455 
" clip-path="url(#p6c80bf613c)" style="fill: none; stroke-dasharray: 5.55,2.4; stroke-dashoffset: 0; stroke: #ff0000; stroke-width: 1.5"/>
   </g>
   <g id="patch_8">
    <path d="M 774.585625 676.6 
L 774.585625 52.56 
" style="fill: none; stroke: #000000; stroke-width: 0.8; stroke-linejoin: miter; stroke-linecap: square"/>
   </g>
   <g id="patch_9">
    <path d="M 1247.965625 676.6 
L 1247.965625 52.56 
" style="fill: none; stroke: #000000; stroke-width: 0.8; stroke-linejoin: miter; stroke-linecap: square"/>
   </g>
   <g id="patch_10">
    <path d="M 774.585625 676.6 
L 1247.965625 676.6 
" style="fill: none; stroke: #000000; stroke-width: 0.8; stroke-linejoin: miter; stroke-linecap: square"/>
   </g>
   <g id="patch_11">
    <path d="M 774.585625 52.56 
L 1247.965625 52.56 
" style="fill: none; stroke: #000000; stroke-width: 0.8; stroke-linejoin: miter; stroke-linecap: square"/>
   </g>
  </g>
  <g id="text_25">
   <!-- Higher Temperature Range -->
   <g transform="translate(438.591406 38.446875) scale(0.45 -0.45)">
    <defs>
     <path id="TimesNewRomanPSMT-48" d="M 1316 2272 
L 3284 2272 
L 3284 3484 
Q 3284 3809 3244 3913 
Q 3213 3991 3113 4047 
Q 2978 4122 2828 4122 
L 2678 4122 
L 2678 4238 
L 4491 4238 
L 4491 4122 
L 4341 4122 
Q 4191 4122 4056 4050 
Q 3956 4000 3920 3898 
Q 3884 3797 3884 3484 
L 3884 750 
Q 3884 428 3925 325 
Q 3956 247 4053 191 
Q 4191 116 4341 116 
L 4491 116 
L 4491 0 
L 2678 0 
L 2678 116 
L 2828 116 
Q 3088 116 3206 269 
Q 3284 369 3284 750 
L 3284 2041 
L 1316 2041 
L 1316 750 
Q 1316 428 1356 325 
Q 1388 247 1488 191 
Q 1622 116 1772 116 
L 1925 116 
L 1925 0 
L 109 0 
L 109 116 
L 259 116 
Q 522 116 641 269 
Q 716 369 716 750 
L 716 3484 
Q 716 3809 675 3913 
Q 644 3991 547 4047 
Q 409 4122 259 4122 
L 109 4122 
L 109 4238 
L 1925 4238 
L 1925 4122 
L 1772 4122 
Q 1622 4122 1488 4050 
Q 1391 4000 1353 3898 
Q 1316 3797 1316 3484 
L 1316 2272 
z
" transform="scale(0.015625)"/>
     <path id="TimesNewRomanPSMT-67" d="M 966 1044 
Q 703 1172 562 1401 
Q 422 1631 422 1909 
Q 422 2334 742 2640 
Q 1063 2947 1563 2947 
Q 1972 2947 2272 2747 
L 2878 2747 
Q 3013 2747 3034 2739 
Q 3056 2731 3066 2713 
Q 3084 2684 3084 2613 
Q 3084 2531 3069 2500 
Q 3059 2484 3036 2475 
Q 3013 2466 2878 2466 
L 2506 2466 
Q 2681 2241 2681 1891 
Q 2681 1491 2375 1206 
Q 2069 922 1553 922 
Q 1341 922 1119 984 
Q 981 866 932 777 
Q 884 688 884 625 
Q 884 572 936 522 
Q 988 472 1138 450 
Q 1225 438 1575 428 
Q 2219 413 2409 384 
Q 2700 344 2873 169 
Q 3047 -6 3047 -263 
Q 3047 -616 2716 -925 
Q 2228 -1381 1444 -1381 
Q 841 -1381 425 -1109 
Q 191 -953 191 -784 
Q 191 -709 225 -634 
Q 278 -519 444 -313 
Q 466 -284 763 25 
Q 600 122 533 198 
Q 466 275 466 372 
Q 466 481 555 628 
Q 644 775 966 1044 
z
M 1509 2797 
Q 1278 2797 1122 2612 
Q 966 2428 966 2047 
Q 966 1553 1178 1281 
Q 1341 1075 1591 1075 
Q 1828 1075 1981 1253 
Q 2134 1431 2134 1813 
Q 2134 2309 1919 2591 
Q 1759 2797 1509 2797 
z
M 934 0 
Q 788 -159 713 -296 
Q 638 -434 638 -550 
Q 638 -700 819 -813 
Q 1131 -1006 1722 -1006 
Q 2284 -1006 2551 -807 
Q 2819 -609 2819 -384 
Q 2819 -222 2659 -153 
Q 2497 -84 2016 -72 
Q 1313 -53 934 0 
z
" transform="scale(0.015625)"/>
     <path id="TimesNewRomanPSMT-68" d="M 1041 4444 
L 1041 2350 
Q 1388 2731 1591 2839 
Q 1794 2947 1997 2947 
Q 2241 2947 2416 2812 
Q 2591 2678 2675 2391 
Q 2734 2191 2734 1659 
L 2734 647 
Q 2734 375 2778 275 
Q 2809 200 2884 156 
Q 2959 113 3159 113 
L 3159 0 
L 1753 0 
L 1753 113 
L 1819 113 
Q 2019 113 2097 173 
Q 2175 234 2206 353 
Q 2216 403 2216 647 
L 2216 1659 
Q 2216 2128 2167 2275 
Q 2119 2422 2012 2495 
Q 1906 2569 1756 2569 
Q 1603 2569 1437 2487 
Q 1272 2406 1041 2159 
L 1041 647 
Q 1041 353 1073 281 
Q 1106 209 1195 161 
Q 1284 113 1503 113 
L 1503 0 
L 84 0 
L 84 113 
Q 275 113 384 172 
Q 447 203 484 290 
Q 522 378 522 647 
L 522 3238 
Q 522 3728 498 3840 
Q 475 3953 426 3993 
Q 378 4034 297 4034 
Q 231 4034 84 3984 
L 41 4094 
L 897 4444 
L 1041 4444 
z
" transform="scale(0.015625)"/>
     <path id="TimesNewRomanPSMT-54" d="M 3703 4238 
L 3750 3244 
L 3631 3244 
Q 3597 3506 3538 3619 
Q 3441 3800 3280 3886 
Q 3119 3972 2856 3972 
L 2259 3972 
L 2259 734 
Q 2259 344 2344 247 
Q 2463 116 2709 116 
L 2856 116 
L 2856 0 
L 1059 0 
L 1059 116 
L 1209 116 
Q 1478 116 1591 278 
Q 1659 378 1659 734 
L 1659 3972 
L 1150 3972 
Q 853 3972 728 3928 
Q 566 3869 450 3700 
Q 334 3531 313 3244 
L 194 3244 
L 244 4238 
L 3703 4238 
z
" transform="scale(0.015625)"/>
     <path id="TimesNewRomanPSMT-70" d="M -6 2578 
L 875 2934 
L 994 2934 
L 994 2266 
Q 1216 2644 1439 2795 
Q 1663 2947 1909 2947 
Q 2341 2947 2628 2609 
Q 2981 2197 2981 1534 
Q 2981 794 2556 309 
Q 2206 -88 1675 -88 
Q 1444 -88 1275 -22 
Q 1150 25 994 166 
L 994 -706 
Q 994 -1000 1030 -1079 
Q 1066 -1159 1155 -1206 
Q 1244 -1253 1478 -1253 
L 1478 -1369 
L -22 -1369 
L -22 -1253 
L 56 -1253 
Q 228 -1256 350 -1188 
Q 409 -1153 442 -1076 
Q 475 -1000 475 -688 
L 475 2019 
Q 475 2297 450 2372 
Q 425 2447 370 2484 
Q 316 2522 222 2522 
Q 147 2522 31 2478 
L -6 2578 
z
M 994 2081 
L 994 1013 
Q 994 666 1022 556 
Q 1066 375 1236 237 
Q 1406 100 1666 100 
Q 1978 100 2172 344 
Q 2425 663 2425 1241 
Q 2425 1897 2138 2250 
Q 1938 2494 1663 2494 
Q 1513 2494 1366 2419 
Q 1253 2363 994 2081 
z
" transform="scale(0.015625)"/>
     <path id="TimesNewRomanPSMT-52" d="M 4325 0 
L 3194 0 
L 1759 1981 
Q 1600 1975 1500 1975 
Q 1459 1975 1412 1976 
Q 1366 1978 1316 1981 
L 1316 750 
Q 1316 350 1403 253 
Q 1522 116 1759 116 
L 1925 116 
L 1925 0 
L 109 0 
L 109 116 
L 269 116 
Q 538 116 653 291 
Q 719 388 719 750 
L 719 3488 
Q 719 3888 631 3984 
Q 509 4122 269 4122 
L 109 4122 
L 109 4238 
L 1653 4238 
Q 2328 4238 2648 4139 
Q 2969 4041 3192 3777 
Q 3416 3513 3416 3147 
Q 3416 2756 3161 2468 
Q 2906 2181 2372 2063 
L 3247 847 
Q 3547 428 3762 290 
Q 3978 153 4325 116 
L 4325 0 
z
M 1316 2178 
Q 1375 2178 1419 2176 
Q 1463 2175 1491 2175 
Q 2097 2175 2405 2437 
Q 2713 2700 2713 3106 
Q 2713 3503 2464 3751 
Q 2216 4000 1806 4000 
Q 1625 4000 1316 3941 
L 1316 2178 
z
" transform="scale(0.015625)"/>
    </defs>
    <use xlink:href="#TimesNewRomanPSMT-48"/>
    <use xlink:href="#TimesNewRomanPSMT-69" x="72.216797"/>
    <use xlink:href="#TimesNewRomanPSMT-67" x="100"/>
    <use xlink:href="#TimesNewRomanPSMT-68" x="150"/>
    <use xlink:href="#TimesNewRomanPSMT-65" x="200"/>
    <use xlink:href="#TimesNewRomanPSMT-72" x="244.384766"/>
    <use xlink:href="#TimesNewRomanPSMT-20" x="277.685547"/>
    <use xlink:href="#TimesNewRomanPSMT-54" x="300.935547"/>
    <use xlink:href="#TimesNewRomanPSMT-65" x="355.019531"/>
    <use xlink:href="#TimesNewRomanPSMT-6d" x="399.404297"/>
    <use xlink:href="#TimesNewRomanPSMT-70" x="477.1875"/>
    <use xlink:href="#TimesNewRomanPSMT-65" x="527.1875"/>
    <use xlink:href="#TimesNewRomanPSMT-72" x="571.572266"/>
    <use xlink:href="#TimesNewRomanPSMT-61" x="604.873047"/>
    <use xlink:href="#TimesNewRomanPSMT-74" x="649.257812"/>
    <use xlink:href="#TimesNewRomanPSMT-75" x="677.041016"/>
    <use xlink:href="#TimesNewRomanPSMT-72" x="727.041016"/>
    <use xlink:href="#TimesNewRomanPSMT-65" x="760.341797"/>
    <use xlink:href="#TimesNewRomanPSMT-20" x="804.726562"/>
    <use xlink:href="#TimesNewRomanPSMT-52" x="829.726562"/>
    <use xlink:href="#TimesNewRomanPSMT-61" x="896.425781"/>
    <use xlink:href="#TimesNewRomanPSMT-6e" x="940.810547"/>
    <use xlink:href="#TimesNewRomanPSMT-67" x="990.810547"/>
    <use xlink:href="#TimesNewRomanPSMT-65" x="1040.810547"/>
   </g>
  </g>
  <g id="legend_1">
   <g id="patch_12">
    <path d="M 15.2 825.28 
L 1350.33125 825.28 
Q 1358.33125 825.28 1358.33125 817.28 
L 1358.33125 764.72375 
Q 1358.33125 756.72375 1350.33125 756.72375 
L 15.2 756.72375 
Q 7.2 756.72375 7.2 764.72375 
L 7.2 817.28 
Q 7.2 825.28 15.2 825.28 
z
" style="fill: #ffffff; opacity: 0.8; stroke: #cccccc; stroke-linejoin: miter"/>
   </g>
   <g id="line2d_25">
    <defs>
     <path id="mc2f58f3592" d="M 0 10 
C 2.652031 10 5.195799 8.946337 7.071068 7.071068 
C 8.946337 5.195799 10 2.652031 10 0 
C 10 -2.652031 8.946337 -5.195799 7.071068 -7.071068 
C 5.195799 -8.946337 2.652031 -10 0 -10 
C -2.652031 -10 -5.195799 -8.946337 -7.071068 -7.071068 
C -8.946337 -5.195799 -10 -2.652031 -10 0 
C -10 2.652031 -8.946337 5.195799 -7.071068 7.071068 
C -5.195799 8.946337 -2.652031 10 0 10 
z
" style="stroke: #3399ff"/>
    </defs>
    <g>
     <use xlink:href="#mc2f58f3592" x="63.2" y="786.72375" style="fill: #3399ff; stroke: #3399ff"/>
    </g>
   </g>
   <g id="text_26">
    <!-- Certain Predictions -->
    <g transform="translate(135.2 800.72375) scale(0.4 -0.4)">
     <defs>
      <path id="TimesNewRomanPSMT-43" d="M 3853 4334 
L 3950 2894 
L 3853 2894 
Q 3659 3541 3300 3825 
Q 2941 4109 2438 4109 
Q 2016 4109 1675 3895 
Q 1334 3681 1139 3212 
Q 944 2744 944 2047 
Q 944 1472 1128 1050 
Q 1313 628 1683 403 
Q 2053 178 2528 178 
Q 2941 178 3256 354 
Q 3572 531 3950 1056 
L 4047 994 
Q 3728 428 3303 165 
Q 2878 -97 2294 -97 
Q 1241 -97 663 684 
Q 231 1266 231 2053 
Q 231 2688 515 3219 
Q 800 3750 1298 4042 
Q 1797 4334 2388 4334 
Q 2847 4334 3294 4109 
Q 3425 4041 3481 4041 
Q 3566 4041 3628 4100 
Q 3709 4184 3744 4334 
L 3853 4334 
z
" transform="scale(0.015625)"/>
     </defs>
     <use xlink:href="#TimesNewRomanPSMT-43"/>
     <use xlink:href="#TimesNewRomanPSMT-65" x="66.699219"/>
     <use xlink:href="#TimesNewRomanPSMT-72" x="111.083984"/>
     <use xlink:href="#TimesNewRomanPSMT-74" x="144.384766"/>
     <use xlink:href="#TimesNewRomanPSMT-61" x="172.167969"/>
     <use xlink:href="#TimesNewRomanPSMT-69" x="216.552734"/>
     <use xlink:href="#TimesNewRomanPSMT-6e" x="244.335938"/>
     <use xlink:href="#TimesNewRomanPSMT-20" x="294.335938"/>
     <use xlink:href="#TimesNewRomanPSMT-50" x="319.335938"/>
     <use xlink:href="#TimesNewRomanPSMT-72" x="374.951172"/>
     <use xlink:href="#TimesNewRomanPSMT-65" x="408.251953"/>
     <use xlink:href="#TimesNewRomanPSMT-64" x="452.636719"/>
     <use xlink:href="#TimesNewRomanPSMT-69" x="502.636719"/>
     <use xlink:href="#TimesNewRomanPSMT-63" x="530.419922"/>
     <use xlink:href="#TimesNewRomanPSMT-74" x="574.804688"/>
     <use xlink:href="#TimesNewRomanPSMT-69" x="602.587891"/>
     <use xlink:href="#TimesNewRomanPSMT-6f" x="630.371094"/>
     <use xlink:href="#TimesNewRomanPSMT-6e" x="680.371094"/>
     <use xlink:href="#TimesNewRomanPSMT-73" x="730.371094"/>
    </g>
   </g>
   <g id="line2d_26">
    <defs>
     <path id="mf01841a9af" d="M 0 10 
C 2.652031 10 5.195799 8.946337 7.071068 7.071068 
C 8.946337 5.195799 10 2.652031 10 0 
C 10 -2.652031 8.946337 -5.195799 7.071068 -7.071068 
C 5.195799 -8.946337 2.652031 -10 0 -10 
C -2.652031 -10 -5.195799 -8.946337 -7.071068 -7.071068 
C -8.946337 -5.195799 -10 -2.652031 -10 0 
C -10 2.652031 -8.946337 5.195799 -7.071068 7.071068 
C -5.195799 8.946337 -2.652031 10 0 10 
z
" style="stroke: #ff6666"/>
    </defs>
    <g>
     <use xlink:href="#mf01841a9af" x="562.91875" y="786.72375" style="fill: #ff6666; stroke: #ff6666"/>
    </g>
   </g>
   <g id="text_27">
    <!-- Uncertain Predictions -->
    <g transform="translate(634.91875 800.72375) scale(0.4 -0.4)">
     <defs>
      <path id="TimesNewRomanPSMT-55" d="M 3053 4122 
L 3053 4238 
L 4553 4238 
L 4553 4122 
L 4394 4122 
Q 4144 4122 4009 3913 
Q 3944 3816 3944 3463 
L 3944 1744 
Q 3944 1106 3817 754 
Q 3691 403 3320 151 
Q 2950 -100 2313 -100 
Q 1619 -100 1259 140 
Q 900 381 750 788 
Q 650 1066 650 1831 
L 650 3488 
Q 650 3878 542 4000 
Q 434 4122 194 4122 
L 34 4122 
L 34 4238 
L 1866 4238 
L 1866 4122 
L 1703 4122 
Q 1441 4122 1328 3956 
Q 1250 3844 1250 3488 
L 1250 1641 
Q 1250 1394 1295 1075 
Q 1341 756 1459 578 
Q 1578 400 1801 284 
Q 2025 169 2350 169 
Q 2766 169 3094 350 
Q 3422 531 3542 814 
Q 3663 1097 3663 1772 
L 3663 3488 
Q 3663 3884 3575 3984 
Q 3453 4122 3213 4122 
L 3053 4122 
z
" transform="scale(0.015625)"/>
     </defs>
     <use xlink:href="#TimesNewRomanPSMT-55"/>
     <use xlink:href="#TimesNewRomanPSMT-6e" x="72.216797"/>
     <use xlink:href="#TimesNewRomanPSMT-63" x="122.216797"/>
     <use xlink:href="#TimesNewRomanPSMT-65" x="166.601562"/>
     <use xlink:href="#TimesNewRomanPSMT-72" x="210.986328"/>
     <use xlink:href="#TimesNewRomanPSMT-74" x="244.287109"/>
     <use xlink:href="#TimesNewRomanPSMT-61" x="272.070312"/>
     <use xlink:href="#TimesNewRomanPSMT-69" x="316.455078"/>
     <use xlink:href="#TimesNewRomanPSMT-6e" x="344.238281"/>
     <use xlink:href="#TimesNewRomanPSMT-20" x="394.238281"/>
     <use xlink:href="#TimesNewRomanPSMT-50" x="419.238281"/>
     <use xlink:href="#TimesNewRomanPSMT-72" x="474.853516"/>
     <use xlink:href="#TimesNewRomanPSMT-65" x="508.154297"/>
     <use xlink:href="#TimesNewRomanPSMT-64" x="552.539062"/>
     <use xlink:href="#TimesNewRomanPSMT-69" x="602.539062"/>
     <use xlink:href="#TimesNewRomanPSMT-63" x="630.322266"/>
     <use xlink:href="#TimesNewRomanPSMT-74" x="674.707031"/>
     <use xlink:href="#TimesNewRomanPSMT-69" x="702.490234"/>
     <use xlink:href="#TimesNewRomanPSMT-6f" x="730.273438"/>
     <use xlink:href="#TimesNewRomanPSMT-6e" x="780.273438"/>
     <use xlink:href="#TimesNewRomanPSMT-73" x="830.273438"/>
    </g>
   </g>
   <g id="line2d_27">
    <path d="M 1062.6 786.72375 
L 1102.6 786.72375 
L 1142.6 786.72375 
" style="fill: none; stroke-dasharray: 5.55,2.4; stroke-dashoffset: 0; stroke: #ff0000; stroke-width: 1.5"/>
   </g>
   <g id="text_28">
    <!-- Perfect Fit -->
    <g transform="translate(1174.6 800.72375) scale(0.4 -0.4)">
     <defs>
      <path id="TimesNewRomanPSMT-66" d="M 1319 2638 
L 1319 756 
Q 1319 356 1406 250 
Q 1522 113 1716 113 
L 1975 113 
L 1975 0 
L 266 0 
L 266 113 
L 394 113 
Q 519 113 622 175 
Q 725 238 764 344 
Q 803 450 803 756 
L 803 2638 
L 247 2638 
L 247 2863 
L 803 2863 
L 803 3050 
Q 803 3478 940 3775 
Q 1078 4072 1361 4255 
Q 1644 4438 1997 4438 
Q 2325 4438 2600 4225 
Q 2781 4084 2781 3909 
Q 2781 3816 2700 3733 
Q 2619 3650 2525 3650 
Q 2453 3650 2373 3701 
Q 2294 3753 2178 3923 
Q 2063 4094 1966 4153 
Q 1869 4213 1750 4213 
Q 1606 4213 1506 4136 
Q 1406 4059 1362 3898 
Q 1319 3738 1319 3069 
L 1319 2863 
L 2056 2863 
L 2056 2638 
L 1319 2638 
z
" transform="scale(0.015625)"/>
      <path id="TimesNewRomanPSMT-46" d="M 1309 4006 
L 1309 2341 
L 2081 2341 
Q 2347 2341 2470 2458 
Q 2594 2575 2634 2922 
L 2750 2922 
L 2750 1488 
L 2634 1488 
Q 2631 1734 2570 1850 
Q 2509 1966 2401 2023 
Q 2294 2081 2081 2081 
L 1309 2081 
L 1309 750 
Q 1309 428 1350 325 
Q 1381 247 1481 191 
Q 1619 116 1769 116 
L 1922 116 
L 1922 0 
L 103 0 
L 103 116 
L 253 116 
Q 516 116 634 269 
Q 709 369 709 750 
L 709 3488 
Q 709 3809 669 3913 
Q 638 3991 541 4047 
Q 406 4122 253 4122 
L 103 4122 
L 103 4238 
L 3256 4238 
L 3297 3306 
L 3188 3306 
Q 3106 3603 2998 3742 
Q 2891 3881 2733 3943 
Q 2575 4006 2244 4006 
L 1309 4006 
z
" transform="scale(0.015625)"/>
     </defs>
     <use xlink:href="#TimesNewRomanPSMT-50"/>
     <use xlink:href="#TimesNewRomanPSMT-65" x="55.615234"/>
     <use xlink:href="#TimesNewRomanPSMT-72" x="100"/>
     <use xlink:href="#TimesNewRomanPSMT-66" x="133.300781"/>
     <use xlink:href="#TimesNewRomanPSMT-65" x="166.601562"/>
     <use xlink:href="#TimesNewRomanPSMT-63" x="210.986328"/>
     <use xlink:href="#TimesNewRomanPSMT-74" x="255.371094"/>
     <use xlink:href="#TimesNewRomanPSMT-20" x="283.154297"/>
     <use xlink:href="#TimesNewRomanPSMT-46" x="308.154297"/>
     <use xlink:href="#TimesNewRomanPSMT-69" x="363.769531"/>
     <use xlink:href="#TimesNewRomanPSMT-74" x="391.552734"/>
    </g>
   </g>
  </g>
 </g>
 <defs>
  <clipPath id="pf859dd32f9">
   <rect x="193.635625" y="52.56" width="473.38" height="624.04"/>
  </clipPath>
  <clipPath id="p6c80bf613c">
   <rect x="774.585625" y="52.56" width="473.38" height="624.04"/>
  </clipPath>
 </defs>
</svg>
