<?xml version="1.0" encoding="utf-8" standalone="no"?>
<!DOCTYPE svg PUBLIC "-//W3C//DTD SVG 1.1//EN"
  "http://www.w3.org/Graphics/SVG/1.1/DTD/svg11.dtd">
<svg xmlns:xlink="http://www.w3.org/1999/xlink" width="1080pt" height="576pt" viewBox="0 0 1080 576" xmlns="http://www.w3.org/2000/svg" version="1.1">
 <metadata>
  <rdf:RDF xmlns:dc="http://purl.org/dc/elements/1.1/" xmlns:cc="http://creativecommons.org/ns#" xmlns:rdf="http://www.w3.org/1999/02/22-rdf-syntax-ns#">
   <cc:Work>
    <dc:type rdf:resource="http://purl.org/dc/dcmitype/StillImage"/>
    <dc:date>2024-11-26T14:21:48.817995</dc:date>
    <dc:format>image/svg+xml</dc:format>
    <dc:creator>
     <cc:Agent>
      <dc:title>Matplotlib v3.8.0, https://matplotlib.org/</dc:title>
     </cc:Agent>
    </dc:creator>
   </cc:Work>
  </rdf:RDF>
 </metadata>
 <defs>
  <style type="text/css">*{stroke-linejoin: round; stroke-linecap: butt}</style>
 </defs>
 <g id="figure_1">
  <g id="patch_1">
   <path d="M 0 576 
L 1080 576 
L 1080 0 
L 0 0 
z
" style="fill: #ffffff"/>
  </g>
  <g id="axes_1">
   <g id="patch_2">
    <path d="M 50.33 533.86 
L 537.255124 533.86 
L 537.255124 10.8 
L 50.33 10.8 
z
" style="fill: #ffffff"/>
   </g>
   <g id="PathCollection_1">
    <defs>
     <path id="md160b2ca5d" d="M 0 3 
C 0.795609 3 1.55874 2.683901 2.12132 2.12132 
C 2.683901 1.55874 3 0.795609 3 0 
C 3 -0.795609 2.683901 -1.55874 2.12132 -2.12132 
C 1.55874 -2.683901 0.795609 -3 0 -3 
C -0.795609 -3 -1.55874 -2.683901 -2.12132 -2.12132 
C -2.683901 -1.55874 -3 -0.795609 -3 0 
C -3 0.795609 -2.683901 1.55874 -2.12132 2.12132 
C -1.55874 2.683901 -0.795609 3 0 3 
z
" style="stroke: #0073e6; stroke-opacity: 0.6"/>
    </defs>
    <g clip-path="url(#p9c6d0490ca)">
     <use xlink:href="#md160b2ca5d" x="146.959347" y="320.695265" style="fill: #3399ff; fill-opacity: 0.6; stroke: #0073e6; stroke-opacity: 0.6"/>
     <use xlink:href="#md160b2ca5d" x="368.752135" y="268.852952" style="fill: #3399ff; fill-opacity: 0.6; stroke: #0073e6; stroke-opacity: 0.6"/>
     <use xlink:href="#md160b2ca5d" x="251.076627" y="300.470211" style="fill: #3399ff; fill-opacity: 0.6; stroke: #0073e6; stroke-opacity: 0.6"/>
     <use xlink:href="#md160b2ca5d" x="348.631289" y="157.949888" style="fill: #3399ff; fill-opacity: 0.6; stroke: #0073e6; stroke-opacity: 0.6"/>
     <use xlink:href="#md160b2ca5d" x="239.242448" y="436.692702" style="fill: #3399ff; fill-opacity: 0.6; stroke: #0073e6; stroke-opacity: 0.6"/>
     <use xlink:href="#md160b2ca5d" x="125.978516" y="378.524049" style="fill: #3399ff; fill-opacity: 0.6; stroke: #0073e6; stroke-opacity: 0.6"/>
     <use xlink:href="#md160b2ca5d" x="427.722385" y="180.639924" style="fill: #3399ff; fill-opacity: 0.6; stroke: #0073e6; stroke-opacity: 0.6"/>
     <use xlink:href="#md160b2ca5d" x="225.750564" y="300.13379" style="fill: #3399ff; fill-opacity: 0.6; stroke: #0073e6; stroke-opacity: 0.6"/>
     <use xlink:href="#md160b2ca5d" x="371.064154" y="254.707716" style="fill: #3399ff; fill-opacity: 0.6; stroke: #0073e6; stroke-opacity: 0.6"/>
     <use xlink:href="#md160b2ca5d" x="134.251392" y="255.135686" style="fill: #3399ff; fill-opacity: 0.6; stroke: #0073e6; stroke-opacity: 0.6"/>
     <use xlink:href="#md160b2ca5d" x="250.836641" y="350.199154" style="fill: #3399ff; fill-opacity: 0.6; stroke: #0073e6; stroke-opacity: 0.6"/>
     <use xlink:href="#md160b2ca5d" x="216.845488" y="317.638035" style="fill: #3399ff; fill-opacity: 0.6; stroke: #0073e6; stroke-opacity: 0.6"/>
     <use xlink:href="#md160b2ca5d" x="200.665635" y="267.803149" style="fill: #3399ff; fill-opacity: 0.6; stroke: #0073e6; stroke-opacity: 0.6"/>
     <use xlink:href="#md160b2ca5d" x="346.366764" y="232.721731" style="fill: #3399ff; fill-opacity: 0.6; stroke: #0073e6; stroke-opacity: 0.6"/>
     <use xlink:href="#md160b2ca5d" x="92.578844" y="403.137514" style="fill: #3399ff; fill-opacity: 0.6; stroke: #0073e6; stroke-opacity: 0.6"/>
     <use xlink:href="#md160b2ca5d" x="146.905477" y="400.217353" style="fill: #3399ff; fill-opacity: 0.6; stroke: #0073e6; stroke-opacity: 0.6"/>
     <use xlink:href="#md160b2ca5d" x="253.714274" y="330.860861" style="fill: #3399ff; fill-opacity: 0.6; stroke: #0073e6; stroke-opacity: 0.6"/>
     <use xlink:href="#md160b2ca5d" x="348.561875" y="196.674131" style="fill: #3399ff; fill-opacity: 0.6; stroke: #0073e6; stroke-opacity: 0.6"/>
     <use xlink:href="#md160b2ca5d" x="311.265662" y="277.932059" style="fill: #3399ff; fill-opacity: 0.6; stroke: #0073e6; stroke-opacity: 0.6"/>
     <use xlink:href="#md160b2ca5d" x="199.370219" y="301.920926" style="fill: #3399ff; fill-opacity: 0.6; stroke: #0073e6; stroke-opacity: 0.6"/>
     <use xlink:href="#md160b2ca5d" x="219.373347" y="384.945026" style="fill: #3399ff; fill-opacity: 0.6; stroke: #0073e6; stroke-opacity: 0.6"/>
     <use xlink:href="#md160b2ca5d" x="292.778481" y="326.349075" style="fill: #3399ff; fill-opacity: 0.6; stroke: #0073e6; stroke-opacity: 0.6"/>
     <use xlink:href="#md160b2ca5d" x="205.808713" y="303.944951" style="fill: #3399ff; fill-opacity: 0.6; stroke: #0073e6; stroke-opacity: 0.6"/>
     <use xlink:href="#md160b2ca5d" x="129.186924" y="405.337126" style="fill: #3399ff; fill-opacity: 0.6; stroke: #0073e6; stroke-opacity: 0.6"/>
     <use xlink:href="#md160b2ca5d" x="163.961978" y="419.848251" style="fill: #3399ff; fill-opacity: 0.6; stroke: #0073e6; stroke-opacity: 0.6"/>
     <use xlink:href="#md160b2ca5d" x="515.122164" y="139.930012" style="fill: #3399ff; fill-opacity: 0.6; stroke: #0073e6; stroke-opacity: 0.6"/>
     <use xlink:href="#md160b2ca5d" x="312.522523" y="259.082811" style="fill: #3399ff; fill-opacity: 0.6; stroke: #0073e6; stroke-opacity: 0.6"/>
     <use xlink:href="#md160b2ca5d" x="106.132315" y="378.422411" style="fill: #3399ff; fill-opacity: 0.6; stroke: #0073e6; stroke-opacity: 0.6"/>
     <use xlink:href="#md160b2ca5d" x="259.223001" y="306.145705" style="fill: #3399ff; fill-opacity: 0.6; stroke: #0073e6; stroke-opacity: 0.6"/>
     <use xlink:href="#md160b2ca5d" x="276.275231" y="215.864185" style="fill: #3399ff; fill-opacity: 0.6; stroke: #0073e6; stroke-opacity: 0.6"/>
     <use xlink:href="#md160b2ca5d" x="285.421412" y="271.207063" style="fill: #3399ff; fill-opacity: 0.6; stroke: #0073e6; stroke-opacity: 0.6"/>
     <use xlink:href="#md160b2ca5d" x="369.560224" y="233.733943" style="fill: #3399ff; fill-opacity: 0.6; stroke: #0073e6; stroke-opacity: 0.6"/>
     <use xlink:href="#md160b2ca5d" x="236.693691" y="293.488132" style="fill: #3399ff; fill-opacity: 0.6; stroke: #0073e6; stroke-opacity: 0.6"/>
     <use xlink:href="#md160b2ca5d" x="202.293019" y="365.265286" style="fill: #3399ff; fill-opacity: 0.6; stroke: #0073e6; stroke-opacity: 0.6"/>
    </g>
   </g>
   <g id="matplotlib.axis_1">
    <g id="xtick_1">
     <g id="line2d_1">
      <defs>
       <path id="m9f47cc2dd8" d="M 0 0 
L 0 3.5 
" style="stroke: #000000; stroke-width: 0.8"/>
      </defs>
      <g>
       <use xlink:href="#m9f47cc2dd8" x="96.469685" y="533.86" style="stroke: #000000; stroke-width: 0.8"/>
      </g>
     </g>
     <g id="text_1">
      <!-- −1.50 -->
      <g transform="translate(84.900154 547.80375) scale(0.1 -0.1)">
       <defs>
        <path id="TimesNewRomanPSMT-2212" d="M 3484 2000 
L 116 2000 
L 116 2256 
L 3484 2256 
L 3484 2000 
z
" transform="scale(0.015625)"/>
        <path id="TimesNewRomanPSMT-31" d="M 750 3822 
L 1781 4325 
L 1884 4325 
L 1884 747 
Q 1884 391 1914 303 
Q 1944 216 2037 169 
Q 2131 122 2419 116 
L 2419 0 
L 825 0 
L 825 116 
Q 1125 122 1212 167 
Q 1300 213 1334 289 
Q 1369 366 1369 747 
L 1369 3034 
Q 1369 3497 1338 3628 
Q 1316 3728 1258 3775 
Q 1200 3822 1119 3822 
Q 1003 3822 797 3725 
L 750 3822 
z
" transform="scale(0.015625)"/>
        <path id="TimesNewRomanPSMT-2e" d="M 800 606 
Q 947 606 1047 504 
Q 1147 403 1147 259 
Q 1147 116 1045 14 
Q 944 -88 800 -88 
Q 656 -88 554 14 
Q 453 116 453 259 
Q 453 406 554 506 
Q 656 606 800 606 
z
" transform="scale(0.015625)"/>
        <path id="TimesNewRomanPSMT-35" d="M 2778 4238 
L 2534 3706 
L 1259 3706 
L 981 3138 
Q 1809 3016 2294 2522 
Q 2709 2097 2709 1522 
Q 2709 1188 2573 903 
Q 2438 619 2231 419 
Q 2025 219 1772 97 
Q 1413 -75 1034 -75 
Q 653 -75 479 54 
Q 306 184 306 341 
Q 306 428 378 495 
Q 450 563 559 563 
Q 641 563 702 538 
Q 763 513 909 409 
Q 1144 247 1384 247 
Q 1750 247 2026 523 
Q 2303 800 2303 1197 
Q 2303 1581 2056 1914 
Q 1809 2247 1375 2428 
Q 1034 2569 447 2591 
L 1259 4238 
L 2778 4238 
z
" transform="scale(0.015625)"/>
        <path id="TimesNewRomanPSMT-30" d="M 231 2094 
Q 231 2819 450 3342 
Q 669 3866 1031 4122 
Q 1313 4325 1613 4325 
Q 2100 4325 2488 3828 
Q 2972 3213 2972 2159 
Q 2972 1422 2759 906 
Q 2547 391 2217 158 
Q 1888 -75 1581 -75 
Q 975 -75 572 641 
Q 231 1244 231 2094 
z
M 844 2016 
Q 844 1141 1059 588 
Q 1238 122 1591 122 
Q 1759 122 1940 273 
Q 2122 425 2216 781 
Q 2359 1319 2359 2297 
Q 2359 3022 2209 3506 
Q 2097 3866 1919 4016 
Q 1791 4119 1609 4119 
Q 1397 4119 1231 3928 
Q 1006 3669 925 3112 
Q 844 2556 844 2016 
z
" transform="scale(0.015625)"/>
       </defs>
       <use xlink:href="#TimesNewRomanPSMT-2212"/>
       <use xlink:href="#TimesNewRomanPSMT-31" x="56.396484"/>
       <use xlink:href="#TimesNewRomanPSMT-2e" x="106.396484"/>
       <use xlink:href="#TimesNewRomanPSMT-35" x="131.396484"/>
       <use xlink:href="#TimesNewRomanPSMT-30" x="181.396484"/>
      </g>
     </g>
    </g>
    <g id="xtick_2">
     <g id="line2d_2">
      <g>
       <use xlink:href="#m9f47cc2dd8" x="158.237756" y="533.86" style="stroke: #000000; stroke-width: 0.8"/>
      </g>
     </g>
     <g id="text_2">
      <!-- −1.25 -->
      <g transform="translate(146.668225 547.80375) scale(0.1 -0.1)">
       <defs>
        <path id="TimesNewRomanPSMT-32" d="M 2934 816 
L 2638 0 
L 138 0 
L 138 116 
Q 1241 1122 1691 1759 
Q 2141 2397 2141 2925 
Q 2141 3328 1894 3587 
Q 1647 3847 1303 3847 
Q 991 3847 742 3664 
Q 494 3481 375 3128 
L 259 3128 
Q 338 3706 661 4015 
Q 984 4325 1469 4325 
Q 1984 4325 2329 3994 
Q 2675 3663 2675 3213 
Q 2675 2891 2525 2569 
Q 2294 2063 1775 1497 
Q 997 647 803 472 
L 1909 472 
Q 2247 472 2383 497 
Q 2519 522 2628 598 
Q 2738 675 2819 816 
L 2934 816 
z
" transform="scale(0.015625)"/>
       </defs>
       <use xlink:href="#TimesNewRomanPSMT-2212"/>
       <use xlink:href="#TimesNewRomanPSMT-31" x="56.396484"/>
       <use xlink:href="#TimesNewRomanPSMT-2e" x="106.396484"/>
       <use xlink:href="#TimesNewRomanPSMT-32" x="131.396484"/>
       <use xlink:href="#TimesNewRomanPSMT-35" x="181.396484"/>
      </g>
     </g>
    </g>
    <g id="xtick_3">
     <g id="line2d_3">
      <g>
       <use xlink:href="#m9f47cc2dd8" x="220.005828" y="533.86" style="stroke: #000000; stroke-width: 0.8"/>
      </g>
     </g>
     <g id="text_3">
      <!-- −1.00 -->
      <g transform="translate(208.436297 547.80375) scale(0.1 -0.1)">
       <use xlink:href="#TimesNewRomanPSMT-2212"/>
       <use xlink:href="#TimesNewRomanPSMT-31" x="56.396484"/>
       <use xlink:href="#TimesNewRomanPSMT-2e" x="106.396484"/>
       <use xlink:href="#TimesNewRomanPSMT-30" x="131.396484"/>
       <use xlink:href="#TimesNewRomanPSMT-30" x="181.396484"/>
      </g>
     </g>
    </g>
    <g id="xtick_4">
     <g id="line2d_4">
      <g>
       <use xlink:href="#m9f47cc2dd8" x="281.773899" y="533.86" style="stroke: #000000; stroke-width: 0.8"/>
      </g>
     </g>
     <g id="text_4">
      <!-- −0.75 -->
      <g transform="translate(270.204368 547.80375) scale(0.1 -0.1)">
       <defs>
        <path id="TimesNewRomanPSMT-37" d="M 644 4238 
L 2916 4238 
L 2916 4119 
L 1503 -88 
L 1153 -88 
L 2419 3728 
L 1253 3728 
Q 900 3728 750 3644 
Q 488 3500 328 3200 
L 238 3234 
L 644 4238 
z
" transform="scale(0.015625)"/>
       </defs>
       <use xlink:href="#TimesNewRomanPSMT-2212"/>
       <use xlink:href="#TimesNewRomanPSMT-30" x="56.396484"/>
       <use xlink:href="#TimesNewRomanPSMT-2e" x="106.396484"/>
       <use xlink:href="#TimesNewRomanPSMT-37" x="131.396484"/>
       <use xlink:href="#TimesNewRomanPSMT-35" x="181.396484"/>
      </g>
     </g>
    </g>
    <g id="xtick_5">
     <g id="line2d_5">
      <g>
       <use xlink:href="#m9f47cc2dd8" x="343.541971" y="533.86" style="stroke: #000000; stroke-width: 0.8"/>
      </g>
     </g>
     <g id="text_5">
      <!-- −0.50 -->
      <g transform="translate(331.97244 547.80375) scale(0.1 -0.1)">
       <use xlink:href="#TimesNewRomanPSMT-2212"/>
       <use xlink:href="#TimesNewRomanPSMT-30" x="56.396484"/>
       <use xlink:href="#TimesNewRomanPSMT-2e" x="106.396484"/>
       <use xlink:href="#TimesNewRomanPSMT-35" x="131.396484"/>
       <use xlink:href="#TimesNewRomanPSMT-30" x="181.396484"/>
      </g>
     </g>
    </g>
    <g id="xtick_6">
     <g id="line2d_6">
      <g>
       <use xlink:href="#m9f47cc2dd8" x="405.310042" y="533.86" style="stroke: #000000; stroke-width: 0.8"/>
      </g>
     </g>
     <g id="text_6">
      <!-- −0.25 -->
      <g transform="translate(393.740511 547.80375) scale(0.1 -0.1)">
       <use xlink:href="#TimesNewRomanPSMT-2212"/>
       <use xlink:href="#TimesNewRomanPSMT-30" x="56.396484"/>
       <use xlink:href="#TimesNewRomanPSMT-2e" x="106.396484"/>
       <use xlink:href="#TimesNewRomanPSMT-32" x="131.396484"/>
       <use xlink:href="#TimesNewRomanPSMT-35" x="181.396484"/>
      </g>
     </g>
    </g>
    <g id="xtick_7">
     <g id="line2d_7">
      <g>
       <use xlink:href="#m9f47cc2dd8" x="467.078114" y="533.86" style="stroke: #000000; stroke-width: 0.8"/>
      </g>
     </g>
     <g id="text_7">
      <!-- 0.00 -->
      <g transform="translate(458.328114 547.80375) scale(0.1 -0.1)">
       <use xlink:href="#TimesNewRomanPSMT-30"/>
       <use xlink:href="#TimesNewRomanPSMT-2e" x="50"/>
       <use xlink:href="#TimesNewRomanPSMT-30" x="75"/>
       <use xlink:href="#TimesNewRomanPSMT-30" x="125"/>
      </g>
     </g>
    </g>
    <g id="xtick_8">
     <g id="line2d_8">
      <g>
       <use xlink:href="#m9f47cc2dd8" x="528.846185" y="533.86" style="stroke: #000000; stroke-width: 0.8"/>
      </g>
     </g>
     <g id="text_8">
      <!-- 0.25 -->
      <g transform="translate(520.096185 547.80375) scale(0.1 -0.1)">
       <use xlink:href="#TimesNewRomanPSMT-30"/>
       <use xlink:href="#TimesNewRomanPSMT-2e" x="50"/>
       <use xlink:href="#TimesNewRomanPSMT-32" x="75"/>
       <use xlink:href="#TimesNewRomanPSMT-35" x="125"/>
      </g>
     </g>
    </g>
    <g id="text_9">
     <!-- Predicted Ln(Dynamic Viscosity) -->
     <g transform="translate(226.696468 560.886562) scale(0.1 -0.1)">
      <defs>
       <path id="TimesNewRomanPSMT-50" d="M 1313 1984 
L 1313 750 
Q 1313 350 1400 253 
Q 1519 116 1759 116 
L 1922 116 
L 1922 0 
L 106 0 
L 106 116 
L 266 116 
Q 534 116 650 291 
Q 713 388 713 750 
L 713 3488 
Q 713 3888 628 3984 
Q 506 4122 266 4122 
L 106 4122 
L 106 4238 
L 1659 4238 
Q 2228 4238 2556 4120 
Q 2884 4003 3109 3725 
Q 3334 3447 3334 3066 
Q 3334 2547 2992 2222 
Q 2650 1897 2025 1897 
Q 1872 1897 1694 1919 
Q 1516 1941 1313 1984 
z
M 1313 2163 
Q 1478 2131 1606 2115 
Q 1734 2100 1825 2100 
Q 2150 2100 2386 2351 
Q 2622 2603 2622 3003 
Q 2622 3278 2509 3514 
Q 2397 3750 2190 3867 
Q 1984 3984 1722 3984 
Q 1563 3984 1313 3925 
L 1313 2163 
z
" transform="scale(0.015625)"/>
       <path id="TimesNewRomanPSMT-72" d="M 1038 2947 
L 1038 2303 
Q 1397 2947 1775 2947 
Q 1947 2947 2059 2842 
Q 2172 2738 2172 2600 
Q 2172 2478 2090 2393 
Q 2009 2309 1897 2309 
Q 1788 2309 1652 2417 
Q 1516 2525 1450 2525 
Q 1394 2525 1328 2463 
Q 1188 2334 1038 2041 
L 1038 669 
Q 1038 431 1097 309 
Q 1138 225 1241 169 
Q 1344 113 1538 113 
L 1538 0 
L 72 0 
L 72 113 
Q 291 113 397 181 
Q 475 231 506 341 
Q 522 394 522 644 
L 522 1753 
Q 522 2253 501 2348 
Q 481 2444 426 2487 
Q 372 2531 291 2531 
Q 194 2531 72 2484 
L 41 2597 
L 906 2947 
L 1038 2947 
z
" transform="scale(0.015625)"/>
       <path id="TimesNewRomanPSMT-65" d="M 681 1784 
Q 678 1147 991 784 
Q 1303 422 1725 422 
Q 2006 422 2214 576 
Q 2422 731 2563 1106 
L 2659 1044 
Q 2594 616 2278 264 
Q 1963 -88 1488 -88 
Q 972 -88 605 314 
Q 238 716 238 1394 
Q 238 2128 614 2539 
Q 991 2950 1559 2950 
Q 2041 2950 2350 2633 
Q 2659 2316 2659 1784 
L 681 1784 
z
M 681 1966 
L 2006 1966 
Q 1991 2241 1941 2353 
Q 1863 2528 1708 2628 
Q 1553 2728 1384 2728 
Q 1125 2728 920 2526 
Q 716 2325 681 1966 
z
" transform="scale(0.015625)"/>
       <path id="TimesNewRomanPSMT-64" d="M 2222 322 
Q 2013 103 1813 7 
Q 1613 -88 1381 -88 
Q 913 -88 563 304 
Q 213 697 213 1313 
Q 213 1928 600 2439 
Q 988 2950 1597 2950 
Q 1975 2950 2222 2709 
L 2222 3238 
Q 2222 3728 2198 3840 
Q 2175 3953 2125 3993 
Q 2075 4034 2000 4034 
Q 1919 4034 1784 3984 
L 1744 4094 
L 2597 4444 
L 2738 4444 
L 2738 1134 
Q 2738 631 2761 520 
Q 2784 409 2836 365 
Q 2888 322 2956 322 
Q 3041 322 3181 375 
L 3216 266 
L 2366 -88 
L 2222 -88 
L 2222 322 
z
M 2222 541 
L 2222 2016 
Q 2203 2228 2109 2403 
Q 2016 2578 1861 2667 
Q 1706 2756 1559 2756 
Q 1284 2756 1069 2509 
Q 784 2184 784 1559 
Q 784 928 1059 592 
Q 1334 256 1672 256 
Q 1956 256 2222 541 
z
" transform="scale(0.015625)"/>
       <path id="TimesNewRomanPSMT-69" d="M 928 4444 
Q 1059 4444 1151 4351 
Q 1244 4259 1244 4128 
Q 1244 3997 1151 3903 
Q 1059 3809 928 3809 
Q 797 3809 703 3903 
Q 609 3997 609 4128 
Q 609 4259 701 4351 
Q 794 4444 928 4444 
z
M 1188 2947 
L 1188 647 
Q 1188 378 1227 289 
Q 1266 200 1342 156 
Q 1419 113 1622 113 
L 1622 0 
L 231 0 
L 231 113 
Q 441 113 512 153 
Q 584 194 626 287 
Q 669 381 669 647 
L 669 1750 
Q 669 2216 641 2353 
Q 619 2453 572 2492 
Q 525 2531 444 2531 
Q 356 2531 231 2484 
L 188 2597 
L 1050 2947 
L 1188 2947 
z
" transform="scale(0.015625)"/>
       <path id="TimesNewRomanPSMT-63" d="M 2631 1088 
Q 2516 522 2178 217 
Q 1841 -88 1431 -88 
Q 944 -88 581 321 
Q 219 731 219 1428 
Q 219 2103 620 2525 
Q 1022 2947 1584 2947 
Q 2006 2947 2278 2723 
Q 2550 2500 2550 2259 
Q 2550 2141 2473 2067 
Q 2397 1994 2259 1994 
Q 2075 1994 1981 2113 
Q 1928 2178 1911 2362 
Q 1894 2547 1784 2644 
Q 1675 2738 1481 2738 
Q 1169 2738 978 2506 
Q 725 2200 725 1697 
Q 725 1184 976 792 
Q 1228 400 1656 400 
Q 1963 400 2206 609 
Q 2378 753 2541 1131 
L 2631 1088 
z
" transform="scale(0.015625)"/>
       <path id="TimesNewRomanPSMT-74" d="M 1031 3803 
L 1031 2863 
L 1700 2863 
L 1700 2644 
L 1031 2644 
L 1031 788 
Q 1031 509 1111 412 
Q 1191 316 1316 316 
Q 1419 316 1516 380 
Q 1613 444 1666 569 
L 1788 569 
Q 1678 263 1478 108 
Q 1278 -47 1066 -47 
Q 922 -47 784 33 
Q 647 113 581 261 
Q 516 409 516 719 
L 516 2644 
L 63 2644 
L 63 2747 
Q 234 2816 414 2980 
Q 594 3144 734 3369 
Q 806 3488 934 3803 
L 1031 3803 
z
" transform="scale(0.015625)"/>
       <path id="TimesNewRomanPSMT-20" transform="scale(0.015625)"/>
       <path id="TimesNewRomanPSMT-4c" d="M 3669 1172 
L 3772 1150 
L 3409 0 
L 128 0 
L 128 116 
L 288 116 
Q 556 116 672 291 
Q 738 391 738 753 
L 738 3488 
Q 738 3884 650 3984 
Q 528 4122 288 4122 
L 128 4122 
L 128 4238 
L 2047 4238 
L 2047 4122 
Q 1709 4125 1573 4059 
Q 1438 3994 1388 3894 
Q 1338 3794 1338 3416 
L 1338 753 
Q 1338 494 1388 397 
Q 1425 331 1503 300 
Q 1581 269 1991 269 
L 2300 269 
Q 2788 269 2984 341 
Q 3181 413 3343 595 
Q 3506 778 3669 1172 
z
" transform="scale(0.015625)"/>
       <path id="TimesNewRomanPSMT-6e" d="M 1034 2341 
Q 1538 2947 1994 2947 
Q 2228 2947 2397 2830 
Q 2566 2713 2666 2444 
Q 2734 2256 2734 1869 
L 2734 647 
Q 2734 375 2778 278 
Q 2813 200 2889 156 
Q 2966 113 3172 113 
L 3172 0 
L 1756 0 
L 1756 113 
L 1816 113 
Q 2016 113 2095 173 
Q 2175 234 2206 353 
Q 2219 400 2219 647 
L 2219 1819 
Q 2219 2209 2117 2386 
Q 2016 2563 1775 2563 
Q 1403 2563 1034 2156 
L 1034 647 
Q 1034 356 1069 288 
Q 1113 197 1189 155 
Q 1266 113 1500 113 
L 1500 0 
L 84 0 
L 84 113 
L 147 113 
Q 366 113 442 223 
Q 519 334 519 647 
L 519 1709 
Q 519 2225 495 2337 
Q 472 2450 423 2490 
Q 375 2531 294 2531 
Q 206 2531 84 2484 
L 38 2597 
L 900 2947 
L 1034 2947 
L 1034 2341 
z
" transform="scale(0.015625)"/>
       <path id="TimesNewRomanPSMT-28" d="M 1988 -1253 
L 1988 -1369 
Q 1516 -1131 1200 -813 
Q 750 -359 506 256 
Q 263 872 263 1534 
Q 263 2503 741 3301 
Q 1219 4100 1988 4444 
L 1988 4313 
Q 1603 4100 1356 3731 
Q 1109 3363 987 2797 
Q 866 2231 866 1616 
Q 866 947 969 400 
Q 1050 -31 1165 -292 
Q 1281 -553 1476 -793 
Q 1672 -1034 1988 -1253 
z
" transform="scale(0.015625)"/>
       <path id="TimesNewRomanPSMT-44" d="M 109 0 
L 109 116 
L 269 116 
Q 538 116 650 288 
Q 719 391 719 750 
L 719 3488 
Q 719 3884 631 3984 
Q 509 4122 269 4122 
L 109 4122 
L 109 4238 
L 1834 4238 
Q 2784 4238 3279 4022 
Q 3775 3806 4076 3303 
Q 4378 2800 4378 2141 
Q 4378 1256 3841 663 
Q 3238 0 2003 0 
L 109 0 
z
M 1319 306 
Q 1716 219 1984 219 
Q 2709 219 3187 728 
Q 3666 1238 3666 2109 
Q 3666 2988 3187 3494 
Q 2709 4000 1959 4000 
Q 1678 4000 1319 3909 
L 1319 306 
z
" transform="scale(0.015625)"/>
       <path id="TimesNewRomanPSMT-79" d="M 38 2863 
L 1372 2863 
L 1372 2747 
L 1306 2747 
Q 1166 2747 1095 2686 
Q 1025 2625 1025 2534 
Q 1025 2413 1128 2197 
L 1825 753 
L 2466 2334 
Q 2519 2463 2519 2588 
Q 2519 2644 2497 2672 
Q 2472 2706 2419 2726 
Q 2366 2747 2231 2747 
L 2231 2863 
L 3163 2863 
L 3163 2747 
Q 3047 2734 2984 2696 
Q 2922 2659 2847 2556 
Q 2819 2513 2741 2316 
L 1575 -541 
Q 1406 -956 1132 -1168 
Q 859 -1381 606 -1381 
Q 422 -1381 303 -1275 
Q 184 -1169 184 -1031 
Q 184 -900 270 -820 
Q 356 -741 506 -741 
Q 609 -741 788 -809 
Q 913 -856 944 -856 
Q 1038 -856 1148 -759 
Q 1259 -663 1372 -384 
L 1575 113 
L 547 2272 
Q 500 2369 397 2513 
Q 319 2622 269 2659 
Q 197 2709 38 2747 
L 38 2863 
z
" transform="scale(0.015625)"/>
       <path id="TimesNewRomanPSMT-61" d="M 1822 413 
Q 1381 72 1269 19 
Q 1100 -59 909 -59 
Q 613 -59 420 144 
Q 228 347 228 678 
Q 228 888 322 1041 
Q 450 1253 767 1440 
Q 1084 1628 1822 1897 
L 1822 2009 
Q 1822 2438 1686 2597 
Q 1550 2756 1291 2756 
Q 1094 2756 978 2650 
Q 859 2544 859 2406 
L 866 2225 
Q 866 2081 792 2003 
Q 719 1925 600 1925 
Q 484 1925 411 2006 
Q 338 2088 338 2228 
Q 338 2497 613 2722 
Q 888 2947 1384 2947 
Q 1766 2947 2009 2819 
Q 2194 2722 2281 2516 
Q 2338 2381 2338 1966 
L 2338 994 
Q 2338 584 2353 492 
Q 2369 400 2405 369 
Q 2441 338 2488 338 
Q 2538 338 2575 359 
Q 2641 400 2828 588 
L 2828 413 
Q 2478 -56 2159 -56 
Q 2006 -56 1915 50 
Q 1825 156 1822 413 
z
M 1822 616 
L 1822 1706 
Q 1350 1519 1213 1441 
Q 966 1303 859 1153 
Q 753 1003 753 825 
Q 753 600 887 451 
Q 1022 303 1197 303 
Q 1434 303 1822 616 
z
" transform="scale(0.015625)"/>
       <path id="TimesNewRomanPSMT-6d" d="M 1050 2338 
Q 1363 2650 1419 2697 
Q 1559 2816 1721 2881 
Q 1884 2947 2044 2947 
Q 2313 2947 2506 2790 
Q 2700 2634 2766 2338 
Q 3088 2713 3309 2830 
Q 3531 2947 3766 2947 
Q 3994 2947 4170 2830 
Q 4347 2713 4450 2447 
Q 4519 2266 4519 1878 
L 4519 647 
Q 4519 378 4559 278 
Q 4591 209 4675 161 
Q 4759 113 4950 113 
L 4950 0 
L 3538 0 
L 3538 113 
L 3597 113 
Q 3781 113 3884 184 
Q 3956 234 3988 344 
Q 4000 397 4000 647 
L 4000 1878 
Q 4000 2228 3916 2372 
Q 3794 2572 3525 2572 
Q 3359 2572 3192 2489 
Q 3025 2406 2788 2181 
L 2781 2147 
L 2788 2013 
L 2788 647 
Q 2788 353 2820 281 
Q 2853 209 2943 161 
Q 3034 113 3253 113 
L 3253 0 
L 1806 0 
L 1806 113 
Q 2044 113 2133 169 
Q 2222 225 2256 338 
Q 2272 391 2272 647 
L 2272 1878 
Q 2272 2228 2169 2381 
Q 2031 2581 1784 2581 
Q 1616 2581 1450 2491 
Q 1191 2353 1050 2181 
L 1050 647 
Q 1050 366 1089 281 
Q 1128 197 1204 155 
Q 1281 113 1516 113 
L 1516 0 
L 100 0 
L 100 113 
Q 297 113 375 155 
Q 453 197 493 289 
Q 534 381 534 647 
L 534 1741 
Q 534 2213 506 2350 
Q 484 2453 437 2492 
Q 391 2531 309 2531 
Q 222 2531 100 2484 
L 53 2597 
L 916 2947 
L 1050 2947 
L 1050 2338 
z
" transform="scale(0.015625)"/>
       <path id="TimesNewRomanPSMT-56" d="M 4544 4238 
L 4544 4122 
Q 4319 4081 4203 3978 
Q 4038 3825 3909 3509 
L 2431 -97 
L 2316 -97 
L 728 3556 
Q 606 3838 556 3900 
Q 478 3997 364 4051 
Q 250 4106 56 4122 
L 56 4238 
L 1788 4238 
L 1788 4122 
Q 1494 4094 1406 4022 
Q 1319 3950 1319 3838 
Q 1319 3681 1463 3350 
L 2541 866 
L 3541 3319 
Q 3688 3681 3688 3822 
Q 3688 3913 3597 3995 
Q 3506 4078 3291 4113 
Q 3275 4116 3238 4122 
L 3238 4238 
L 4544 4238 
z
" transform="scale(0.015625)"/>
       <path id="TimesNewRomanPSMT-73" d="M 2050 2947 
L 2050 1972 
L 1947 1972 
Q 1828 2431 1642 2597 
Q 1456 2763 1169 2763 
Q 950 2763 815 2647 
Q 681 2531 681 2391 
Q 681 2216 781 2091 
Q 878 1963 1175 1819 
L 1631 1597 
Q 2266 1288 2266 781 
Q 2266 391 1970 151 
Q 1675 -88 1309 -88 
Q 1047 -88 709 6 
Q 606 38 541 38 
Q 469 38 428 -44 
L 325 -44 
L 325 978 
L 428 978 
Q 516 541 762 319 
Q 1009 97 1316 97 
Q 1531 97 1667 223 
Q 1803 350 1803 528 
Q 1803 744 1651 891 
Q 1500 1038 1047 1263 
Q 594 1488 453 1669 
Q 313 1847 313 2119 
Q 313 2472 555 2709 
Q 797 2947 1181 2947 
Q 1350 2947 1591 2875 
Q 1750 2828 1803 2828 
Q 1853 2828 1881 2850 
Q 1909 2872 1947 2947 
L 2050 2947 
z
" transform="scale(0.015625)"/>
       <path id="TimesNewRomanPSMT-6f" d="M 1600 2947 
Q 2250 2947 2644 2453 
Q 2978 2031 2978 1484 
Q 2978 1100 2793 706 
Q 2609 313 2286 112 
Q 1963 -88 1566 -88 
Q 919 -88 538 428 
Q 216 863 216 1403 
Q 216 1797 411 2186 
Q 606 2575 925 2761 
Q 1244 2947 1600 2947 
z
M 1503 2744 
Q 1338 2744 1170 2645 
Q 1003 2547 900 2300 
Q 797 2053 797 1666 
Q 797 1041 1045 587 
Q 1294 134 1700 134 
Q 2003 134 2200 384 
Q 2397 634 2397 1244 
Q 2397 2006 2069 2444 
Q 1847 2744 1503 2744 
z
" transform="scale(0.015625)"/>
       <path id="TimesNewRomanPSMT-29" d="M 144 4313 
L 144 4444 
Q 619 4209 934 3891 
Q 1381 3434 1625 2820 
Q 1869 2206 1869 1541 
Q 1869 572 1392 -226 
Q 916 -1025 144 -1369 
L 144 -1253 
Q 528 -1038 776 -670 
Q 1025 -303 1145 264 
Q 1266 831 1266 1447 
Q 1266 2113 1163 2663 
Q 1084 3094 967 3353 
Q 850 3613 656 3853 
Q 463 4094 144 4313 
z
" transform="scale(0.015625)"/>
      </defs>
      <use xlink:href="#TimesNewRomanPSMT-50"/>
      <use xlink:href="#TimesNewRomanPSMT-72" x="55.615234"/>
      <use xlink:href="#TimesNewRomanPSMT-65" x="88.916016"/>
      <use xlink:href="#TimesNewRomanPSMT-64" x="133.300781"/>
      <use xlink:href="#TimesNewRomanPSMT-69" x="183.300781"/>
      <use xlink:href="#TimesNewRomanPSMT-63" x="211.083984"/>
      <use xlink:href="#TimesNewRomanPSMT-74" x="255.46875"/>
      <use xlink:href="#TimesNewRomanPSMT-65" x="283.251953"/>
      <use xlink:href="#TimesNewRomanPSMT-64" x="327.636719"/>
      <use xlink:href="#TimesNewRomanPSMT-20" x="377.636719"/>
      <use xlink:href="#TimesNewRomanPSMT-4c" x="402.636719"/>
      <use xlink:href="#TimesNewRomanPSMT-6e" x="463.720703"/>
      <use xlink:href="#TimesNewRomanPSMT-28" x="513.720703"/>
      <use xlink:href="#TimesNewRomanPSMT-44" x="547.021484"/>
      <use xlink:href="#TimesNewRomanPSMT-79" x="619.238281"/>
      <use xlink:href="#TimesNewRomanPSMT-6e" x="669.238281"/>
      <use xlink:href="#TimesNewRomanPSMT-61" x="719.238281"/>
      <use xlink:href="#TimesNewRomanPSMT-6d" x="763.623047"/>
      <use xlink:href="#TimesNewRomanPSMT-69" x="841.40625"/>
      <use xlink:href="#TimesNewRomanPSMT-63" x="869.189453"/>
      <use xlink:href="#TimesNewRomanPSMT-20" x="913.574219"/>
      <use xlink:href="#TimesNewRomanPSMT-56" x="936.824219"/>
      <use xlink:href="#TimesNewRomanPSMT-69" x="1003.041016"/>
      <use xlink:href="#TimesNewRomanPSMT-73" x="1030.824219"/>
      <use xlink:href="#TimesNewRomanPSMT-63" x="1069.740234"/>
      <use xlink:href="#TimesNewRomanPSMT-6f" x="1114.125"/>
      <use xlink:href="#TimesNewRomanPSMT-73" x="1164.125"/>
      <use xlink:href="#TimesNewRomanPSMT-69" x="1203.041016"/>
      <use xlink:href="#TimesNewRomanPSMT-74" x="1230.824219"/>
      <use xlink:href="#TimesNewRomanPSMT-79" x="1258.607422"/>
      <use xlink:href="#TimesNewRomanPSMT-29" x="1308.607422"/>
     </g>
    </g>
   </g>
   <g id="matplotlib.axis_2">
    <g id="ytick_1">
     <g id="line2d_9">
      <defs>
       <path id="m619c07b0b6" d="M 0 0 
L -3.5 0 
" style="stroke: #000000; stroke-width: 0.8"/>
      </defs>
      <g>
       <use xlink:href="#m619c07b0b6" x="50.33" y="510.60475" style="stroke: #000000; stroke-width: 0.8"/>
      </g>
     </g>
     <g id="text_10">
      <!-- −2.0 -->
      <g transform="translate(25.190937 514.076625) scale(0.1 -0.1)">
       <use xlink:href="#TimesNewRomanPSMT-2212"/>
       <use xlink:href="#TimesNewRomanPSMT-32" x="56.396484"/>
       <use xlink:href="#TimesNewRomanPSMT-2e" x="106.396484"/>
       <use xlink:href="#TimesNewRomanPSMT-30" x="131.396484"/>
      </g>
     </g>
    </g>
    <g id="ytick_2">
     <g id="line2d_10">
      <g>
       <use xlink:href="#m619c07b0b6" x="50.33" y="418.864946" style="stroke: #000000; stroke-width: 0.8"/>
      </g>
     </g>
     <g id="text_11">
      <!-- −1.5 -->
      <g transform="translate(25.190937 422.336821) scale(0.1 -0.1)">
       <use xlink:href="#TimesNewRomanPSMT-2212"/>
       <use xlink:href="#TimesNewRomanPSMT-31" x="56.396484"/>
       <use xlink:href="#TimesNewRomanPSMT-2e" x="106.396484"/>
       <use xlink:href="#TimesNewRomanPSMT-35" x="131.396484"/>
      </g>
     </g>
    </g>
    <g id="ytick_3">
     <g id="line2d_11">
      <g>
       <use xlink:href="#m619c07b0b6" x="50.33" y="327.125142" style="stroke: #000000; stroke-width: 0.8"/>
      </g>
     </g>
     <g id="text_12">
      <!-- −1.0 -->
      <g transform="translate(25.190937 330.597017) scale(0.1 -0.1)">
       <use xlink:href="#TimesNewRomanPSMT-2212"/>
       <use xlink:href="#TimesNewRomanPSMT-31" x="56.396484"/>
       <use xlink:href="#TimesNewRomanPSMT-2e" x="106.396484"/>
       <use xlink:href="#TimesNewRomanPSMT-30" x="131.396484"/>
      </g>
     </g>
    </g>
    <g id="ytick_4">
     <g id="line2d_12">
      <g>
       <use xlink:href="#m619c07b0b6" x="50.33" y="235.385338" style="stroke: #000000; stroke-width: 0.8"/>
      </g>
     </g>
     <g id="text_13">
      <!-- −0.5 -->
      <g transform="translate(25.190937 238.857213) scale(0.1 -0.1)">
       <use xlink:href="#TimesNewRomanPSMT-2212"/>
       <use xlink:href="#TimesNewRomanPSMT-30" x="56.396484"/>
       <use xlink:href="#TimesNewRomanPSMT-2e" x="106.396484"/>
       <use xlink:href="#TimesNewRomanPSMT-35" x="131.396484"/>
      </g>
     </g>
    </g>
    <g id="ytick_5">
     <g id="line2d_13">
      <g>
       <use xlink:href="#m619c07b0b6" x="50.33" y="143.645535" style="stroke: #000000; stroke-width: 0.8"/>
      </g>
     </g>
     <g id="text_14">
      <!-- 0.0 -->
      <g transform="translate(30.83 147.11741) scale(0.1 -0.1)">
       <use xlink:href="#TimesNewRomanPSMT-30"/>
       <use xlink:href="#TimesNewRomanPSMT-2e" x="50"/>
       <use xlink:href="#TimesNewRomanPSMT-30" x="75"/>
      </g>
     </g>
    </g>
    <g id="ytick_6">
     <g id="line2d_14">
      <g>
       <use xlink:href="#m619c07b0b6" x="50.33" y="51.905731" style="stroke: #000000; stroke-width: 0.8"/>
      </g>
     </g>
     <g id="text_15">
      <!-- 0.5 -->
      <g transform="translate(30.83 55.377606) scale(0.1 -0.1)">
       <use xlink:href="#TimesNewRomanPSMT-30"/>
       <use xlink:href="#TimesNewRomanPSMT-2e" x="50"/>
       <use xlink:href="#TimesNewRomanPSMT-35" x="75"/>
      </g>
     </g>
    </g>
    <g id="text_16">
     <!-- Actual Ln(Dynamic Viscosity) -->
     <g transform="translate(19.033125 333.872188) rotate(-90) scale(0.1 -0.1)">
      <defs>
       <path id="TimesNewRomanPSMT-41" d="M 2928 1419 
L 1288 1419 
L 1000 750 
Q 894 503 894 381 
Q 894 284 986 211 
Q 1078 138 1384 116 
L 1384 0 
L 50 0 
L 50 116 
Q 316 163 394 238 
Q 553 388 747 847 
L 2238 4334 
L 2347 4334 
L 3822 809 
Q 4000 384 4145 257 
Q 4291 131 4550 116 
L 4550 0 
L 2878 0 
L 2878 116 
Q 3131 128 3220 200 
Q 3309 272 3309 375 
Q 3309 513 3184 809 
L 2928 1419 
z
M 2841 1650 
L 2122 3363 
L 1384 1650 
L 2841 1650 
z
" transform="scale(0.015625)"/>
       <path id="TimesNewRomanPSMT-75" d="M 2709 2863 
L 2709 1128 
Q 2709 631 2732 520 
Q 2756 409 2807 365 
Q 2859 322 2928 322 
Q 3025 322 3147 375 
L 3191 266 
L 2334 -88 
L 2194 -88 
L 2194 519 
Q 1825 119 1631 15 
Q 1438 -88 1222 -88 
Q 981 -88 804 51 
Q 628 191 559 409 
Q 491 628 491 1028 
L 491 2306 
Q 491 2509 447 2587 
Q 403 2666 317 2708 
Q 231 2750 6 2747 
L 6 2863 
L 1009 2863 
L 1009 947 
Q 1009 547 1148 422 
Q 1288 297 1484 297 
Q 1619 297 1789 381 
Q 1959 466 2194 703 
L 2194 2325 
Q 2194 2569 2105 2655 
Q 2016 2741 1734 2747 
L 1734 2863 
L 2709 2863 
z
" transform="scale(0.015625)"/>
       <path id="TimesNewRomanPSMT-6c" d="M 1184 4444 
L 1184 647 
Q 1184 378 1223 290 
Q 1263 203 1344 158 
Q 1425 113 1647 113 
L 1647 0 
L 244 0 
L 244 113 
Q 441 113 512 153 
Q 584 194 625 287 
Q 666 381 666 647 
L 666 3247 
Q 666 3731 644 3842 
Q 622 3953 573 3993 
Q 525 4034 450 4034 
Q 369 4034 244 3984 
L 191 4094 
L 1044 4444 
L 1184 4444 
z
" transform="scale(0.015625)"/>
      </defs>
      <use xlink:href="#TimesNewRomanPSMT-41"/>
      <use xlink:href="#TimesNewRomanPSMT-63" x="72.216797"/>
      <use xlink:href="#TimesNewRomanPSMT-74" x="116.601562"/>
      <use xlink:href="#TimesNewRomanPSMT-75" x="144.384766"/>
      <use xlink:href="#TimesNewRomanPSMT-61" x="194.384766"/>
      <use xlink:href="#TimesNewRomanPSMT-6c" x="238.769531"/>
      <use xlink:href="#TimesNewRomanPSMT-20" x="266.552734"/>
      <use xlink:href="#TimesNewRomanPSMT-4c" x="291.552734"/>
      <use xlink:href="#TimesNewRomanPSMT-6e" x="352.636719"/>
      <use xlink:href="#TimesNewRomanPSMT-28" x="402.636719"/>
      <use xlink:href="#TimesNewRomanPSMT-44" x="435.9375"/>
      <use xlink:href="#TimesNewRomanPSMT-79" x="508.154297"/>
      <use xlink:href="#TimesNewRomanPSMT-6e" x="558.154297"/>
      <use xlink:href="#TimesNewRomanPSMT-61" x="608.154297"/>
      <use xlink:href="#TimesNewRomanPSMT-6d" x="652.539062"/>
      <use xlink:href="#TimesNewRomanPSMT-69" x="730.322266"/>
      <use xlink:href="#TimesNewRomanPSMT-63" x="758.105469"/>
      <use xlink:href="#TimesNewRomanPSMT-20" x="802.490234"/>
      <use xlink:href="#TimesNewRomanPSMT-56" x="825.740234"/>
      <use xlink:href="#TimesNewRomanPSMT-69" x="891.957031"/>
      <use xlink:href="#TimesNewRomanPSMT-73" x="919.740234"/>
      <use xlink:href="#TimesNewRomanPSMT-63" x="958.65625"/>
      <use xlink:href="#TimesNewRomanPSMT-6f" x="1003.041016"/>
      <use xlink:href="#TimesNewRomanPSMT-73" x="1053.041016"/>
      <use xlink:href="#TimesNewRomanPSMT-69" x="1091.957031"/>
      <use xlink:href="#TimesNewRomanPSMT-74" x="1119.740234"/>
      <use xlink:href="#TimesNewRomanPSMT-79" x="1147.523438"/>
      <use xlink:href="#TimesNewRomanPSMT-29" x="1197.523438"/>
     </g>
    </g>
   </g>
   <g id="line2d_15">
    <path d="M 72.46296 436.692702 
L 515.122164 107.967298 
" clip-path="url(#p9c6d0490ca)" style="fill: none; stroke-dasharray: 5.55,2.4; stroke-dashoffset: 0; stroke: #ff0000; stroke-width: 1.5"/>
   </g>
   <g id="line2d_16">
    <path d="M 72.46296 363.300859 
L 515.122164 34.575455 
" clip-path="url(#p9c6d0490ca)" style="fill: none; stroke-dasharray: 5.55,2.4; stroke-dashoffset: 0; stroke: #008000; stroke-width: 1.5"/>
   </g>
   <g id="line2d_17">
    <path d="M 72.46296 510.084545 
L 515.122164 181.359141 
" clip-path="url(#p9c6d0490ca)" style="fill: none; stroke-dasharray: 5.55,2.4; stroke-dashoffset: 0; stroke: #008000; stroke-width: 1.5"/>
   </g>
   <g id="patch_3">
    <path d="M 50.33 533.86 
L 50.33 10.8 
" style="fill: none; stroke: #000000; stroke-width: 0.8; stroke-linejoin: miter; stroke-linecap: square"/>
   </g>
   <g id="patch_4">
    <path d="M 537.255124 533.86 
L 537.255124 10.8 
" style="fill: none; stroke: #000000; stroke-width: 0.8; stroke-linejoin: miter; stroke-linecap: square"/>
   </g>
   <g id="patch_5">
    <path d="M 50.33 533.86 
L 537.255124 533.86 
" style="fill: none; stroke: #000000; stroke-width: 0.8; stroke-linejoin: miter; stroke-linecap: square"/>
   </g>
   <g id="patch_6">
    <path d="M 50.33 10.8 
L 537.255124 10.8 
" style="fill: none; stroke: #000000; stroke-width: 0.8; stroke-linejoin: miter; stroke-linecap: square"/>
   </g>
   <g id="legend_1">
    <g id="patch_7">
     <path d="M 57.33 61.217188 
L 181.058125 61.217188 
Q 183.058125 61.217188 183.058125 59.217188 
L 183.058125 17.8 
Q 183.058125 15.8 181.058125 15.8 
L 57.33 15.8 
Q 55.33 15.8 55.33 17.8 
L 55.33 59.217188 
Q 55.33 61.217188 57.33 61.217188 
z
" style="fill: #ffffff; opacity: 0.8; stroke: #cccccc; stroke-linejoin: miter"/>
    </g>
    <g id="PathCollection_2">
     <g>
      <use xlink:href="#md160b2ca5d" x="69.33" y="24.175" style="fill: #3399ff; fill-opacity: 0.6; stroke: #0073e6; stroke-opacity: 0.6"/>
     </g>
    </g>
    <g id="text_17">
     <!-- Predicted vs Actual -->
     <g transform="translate(87.33 26.8) scale(0.1 -0.1)">
      <defs>
       <path id="TimesNewRomanPSMT-76" d="M 53 2863 
L 1400 2863 
L 1400 2747 
L 1313 2747 
Q 1191 2747 1127 2687 
Q 1063 2628 1063 2528 
Q 1063 2419 1128 2269 
L 1794 688 
L 2463 2328 
Q 2534 2503 2534 2594 
Q 2534 2638 2509 2666 
Q 2475 2713 2422 2730 
Q 2369 2747 2206 2747 
L 2206 2863 
L 3141 2863 
L 3141 2747 
Q 2978 2734 2916 2681 
Q 2806 2588 2719 2369 
L 1703 -88 
L 1575 -88 
L 553 2328 
Q 484 2497 421 2570 
Q 359 2644 263 2694 
Q 209 2722 53 2747 
L 53 2863 
z
" transform="scale(0.015625)"/>
      </defs>
      <use xlink:href="#TimesNewRomanPSMT-50"/>
      <use xlink:href="#TimesNewRomanPSMT-72" x="55.615234"/>
      <use xlink:href="#TimesNewRomanPSMT-65" x="88.916016"/>
      <use xlink:href="#TimesNewRomanPSMT-64" x="133.300781"/>
      <use xlink:href="#TimesNewRomanPSMT-69" x="183.300781"/>
      <use xlink:href="#TimesNewRomanPSMT-63" x="211.083984"/>
      <use xlink:href="#TimesNewRomanPSMT-74" x="255.46875"/>
      <use xlink:href="#TimesNewRomanPSMT-65" x="283.251953"/>
      <use xlink:href="#TimesNewRomanPSMT-64" x="327.636719"/>
      <use xlink:href="#TimesNewRomanPSMT-20" x="377.636719"/>
      <use xlink:href="#TimesNewRomanPSMT-76" x="402.636719"/>
      <use xlink:href="#TimesNewRomanPSMT-73" x="452.636719"/>
      <use xlink:href="#TimesNewRomanPSMT-20" x="491.552734"/>
      <use xlink:href="#TimesNewRomanPSMT-41" x="511.052734"/>
      <use xlink:href="#TimesNewRomanPSMT-63" x="583.269531"/>
      <use xlink:href="#TimesNewRomanPSMT-74" x="627.654297"/>
      <use xlink:href="#TimesNewRomanPSMT-75" x="655.4375"/>
      <use xlink:href="#TimesNewRomanPSMT-61" x="705.4375"/>
      <use xlink:href="#TimesNewRomanPSMT-6c" x="749.822266"/>
     </g>
    </g>
    <g id="line2d_18">
     <path d="M 59.33 37.439063 
L 69.33 37.439063 
L 79.33 37.439063 
" style="fill: none; stroke-dasharray: 5.55,2.4; stroke-dashoffset: 0; stroke: #ff0000; stroke-width: 1.5"/>
    </g>
    <g id="text_18">
     <!-- Perfect Fit -->
     <g transform="translate(87.33 40.939063) scale(0.1 -0.1)">
      <defs>
       <path id="TimesNewRomanPSMT-66" d="M 1319 2638 
L 1319 756 
Q 1319 356 1406 250 
Q 1522 113 1716 113 
L 1975 113 
L 1975 0 
L 266 0 
L 266 113 
L 394 113 
Q 519 113 622 175 
Q 725 238 764 344 
Q 803 450 803 756 
L 803 2638 
L 247 2638 
L 247 2863 
L 803 2863 
L 803 3050 
Q 803 3478 940 3775 
Q 1078 4072 1361 4255 
Q 1644 4438 1997 4438 
Q 2325 4438 2600 4225 
Q 2781 4084 2781 3909 
Q 2781 3816 2700 3733 
Q 2619 3650 2525 3650 
Q 2453 3650 2373 3701 
Q 2294 3753 2178 3923 
Q 2063 4094 1966 4153 
Q 1869 4213 1750 4213 
Q 1606 4213 1506 4136 
Q 1406 4059 1362 3898 
Q 1319 3738 1319 3069 
L 1319 2863 
L 2056 2863 
L 2056 2638 
L 1319 2638 
z
" transform="scale(0.015625)"/>
       <path id="TimesNewRomanPSMT-46" d="M 1309 4006 
L 1309 2341 
L 2081 2341 
Q 2347 2341 2470 2458 
Q 2594 2575 2634 2922 
L 2750 2922 
L 2750 1488 
L 2634 1488 
Q 2631 1734 2570 1850 
Q 2509 1966 2401 2023 
Q 2294 2081 2081 2081 
L 1309 2081 
L 1309 750 
Q 1309 428 1350 325 
Q 1381 247 1481 191 
Q 1619 116 1769 116 
L 1922 116 
L 1922 0 
L 103 0 
L 103 116 
L 253 116 
Q 516 116 634 269 
Q 709 369 709 750 
L 709 3488 
Q 709 3809 669 3913 
Q 638 3991 541 4047 
Q 406 4122 253 4122 
L 103 4122 
L 103 4238 
L 3256 4238 
L 3297 3306 
L 3188 3306 
Q 3106 3603 2998 3742 
Q 2891 3881 2733 3943 
Q 2575 4006 2244 4006 
L 1309 4006 
z
" transform="scale(0.015625)"/>
      </defs>
      <use xlink:href="#TimesNewRomanPSMT-50"/>
      <use xlink:href="#TimesNewRomanPSMT-65" x="55.615234"/>
      <use xlink:href="#TimesNewRomanPSMT-72" x="100"/>
      <use xlink:href="#TimesNewRomanPSMT-66" x="133.300781"/>
      <use xlink:href="#TimesNewRomanPSMT-65" x="166.601562"/>
      <use xlink:href="#TimesNewRomanPSMT-63" x="210.986328"/>
      <use xlink:href="#TimesNewRomanPSMT-74" x="255.371094"/>
      <use xlink:href="#TimesNewRomanPSMT-20" x="283.154297"/>
      <use xlink:href="#TimesNewRomanPSMT-46" x="308.154297"/>
      <use xlink:href="#TimesNewRomanPSMT-69" x="363.769531"/>
      <use xlink:href="#TimesNewRomanPSMT-74" x="391.552734"/>
     </g>
    </g>
    <g id="line2d_19">
     <path d="M 59.33 51.578125 
L 69.33 51.578125 
L 79.33 51.578125 
" style="fill: none; stroke-dasharray: 5.55,2.4; stroke-dashoffset: 0; stroke: #008000; stroke-width: 1.5"/>
    </g>
    <g id="text_19">
     <!-- +/- Standard Deviation -->
     <g transform="translate(87.33 55.078125) scale(0.1 -0.1)">
      <defs>
       <path id="TimesNewRomanPSMT-2b" d="M 1672 441 
L 1672 2000 
L 116 2000 
L 116 2256 
L 1672 2256 
L 1672 3809 
L 1922 3809 
L 1922 2256 
L 3484 2256 
L 3484 2000 
L 1922 2000 
L 1922 441 
L 1672 441 
z
" transform="scale(0.015625)"/>
       <path id="TimesNewRomanPSMT-2f" d="M 1794 4444 
L 259 -88 
L 9 -88 
L 1544 4444 
L 1794 4444 
z
" transform="scale(0.015625)"/>
       <path id="TimesNewRomanPSMT-2d" d="M 259 1672 
L 1875 1672 
L 1875 1200 
L 259 1200 
L 259 1672 
z
" transform="scale(0.015625)"/>
       <path id="TimesNewRomanPSMT-53" d="M 2934 4334 
L 2934 2869 
L 2819 2869 
Q 2763 3291 2617 3541 
Q 2472 3791 2203 3937 
Q 1934 4084 1647 4084 
Q 1322 4084 1109 3886 
Q 897 3688 897 3434 
Q 897 3241 1031 3081 
Q 1225 2847 1953 2456 
Q 2547 2138 2764 1967 
Q 2981 1797 3098 1565 
Q 3216 1334 3216 1081 
Q 3216 600 2842 251 
Q 2469 -97 1881 -97 
Q 1697 -97 1534 -69 
Q 1438 -53 1133 45 
Q 828 144 747 144 
Q 669 144 623 97 
Q 578 50 556 -97 
L 441 -97 
L 441 1356 
L 556 1356 
Q 638 900 775 673 
Q 913 447 1195 297 
Q 1478 147 1816 147 
Q 2206 147 2432 353 
Q 2659 559 2659 841 
Q 2659 997 2573 1156 
Q 2488 1316 2306 1453 
Q 2184 1547 1640 1851 
Q 1097 2156 867 2337 
Q 638 2519 519 2737 
Q 400 2956 400 3219 
Q 400 3675 750 4004 
Q 1100 4334 1641 4334 
Q 1978 4334 2356 4169 
Q 2531 4091 2603 4091 
Q 2684 4091 2736 4139 
Q 2788 4188 2819 4334 
L 2934 4334 
z
" transform="scale(0.015625)"/>
      </defs>
      <use xlink:href="#TimesNewRomanPSMT-2b"/>
      <use xlink:href="#TimesNewRomanPSMT-2f" x="56.396484"/>
      <use xlink:href="#TimesNewRomanPSMT-2d" x="84.179688"/>
      <use xlink:href="#TimesNewRomanPSMT-20" x="117.480469"/>
      <use xlink:href="#TimesNewRomanPSMT-53" x="142.480469"/>
      <use xlink:href="#TimesNewRomanPSMT-74" x="198.095703"/>
      <use xlink:href="#TimesNewRomanPSMT-61" x="225.878906"/>
      <use xlink:href="#TimesNewRomanPSMT-6e" x="270.263672"/>
      <use xlink:href="#TimesNewRomanPSMT-64" x="320.263672"/>
      <use xlink:href="#TimesNewRomanPSMT-61" x="370.263672"/>
      <use xlink:href="#TimesNewRomanPSMT-72" x="414.648438"/>
      <use xlink:href="#TimesNewRomanPSMT-64" x="447.949219"/>
      <use xlink:href="#TimesNewRomanPSMT-20" x="497.949219"/>
      <use xlink:href="#TimesNewRomanPSMT-44" x="522.949219"/>
      <use xlink:href="#TimesNewRomanPSMT-65" x="595.166016"/>
      <use xlink:href="#TimesNewRomanPSMT-76" x="639.550781"/>
      <use xlink:href="#TimesNewRomanPSMT-69" x="689.550781"/>
      <use xlink:href="#TimesNewRomanPSMT-61" x="717.333984"/>
      <use xlink:href="#TimesNewRomanPSMT-74" x="761.71875"/>
      <use xlink:href="#TimesNewRomanPSMT-69" x="789.501953"/>
      <use xlink:href="#TimesNewRomanPSMT-6f" x="817.285156"/>
      <use xlink:href="#TimesNewRomanPSMT-6e" x="867.285156"/>
     </g>
    </g>
   </g>
  </g>
  <g id="axes_2">
   <g id="patch_8">
    <path d="M 582.274876 533.86 
L 1069.2 533.86 
L 1069.2 10.8 
L 582.274876 10.8 
z
" style="fill: #ffffff"/>
   </g>
   <g id="PathCollection_3">
    <defs>
     <path id="m5367acb71d" d="M 0 3 
C 0.795609 3 1.55874 2.683901 2.12132 2.12132 
C 2.683901 1.55874 3 0.795609 3 0 
C 3 -0.795609 2.683901 -1.55874 2.12132 -2.12132 
C 1.55874 -2.683901 0.795609 -3 0 -3 
C -0.795609 -3 -1.55874 -2.683901 -2.12132 -2.12132 
C -2.683901 -1.55874 -3 -0.795609 -3 0 
C -3 0.795609 -2.683901 1.55874 -2.12132 2.12132 
C -1.55874 2.683901 -0.795609 3 0 3 
z
" style="stroke: #cc0000; stroke-opacity: 0.9"/>
    </defs>
    <g clip-path="url(#pd89bf7143f)">
     <use xlink:href="#m5367acb71d" x="691.989202" y="421.621141" style="fill: #ff6666; fill-opacity: 0.9; stroke: #cc0000; stroke-opacity: 0.9"/>
     <use xlink:href="#m5367acb71d" x="667.404998" y="460.36606" style="fill: #ff6666; fill-opacity: 0.9; stroke: #cc0000; stroke-opacity: 0.9"/>
     <use xlink:href="#m5367acb71d" x="707.070399" y="392.574699" style="fill: #ff6666; fill-opacity: 0.9; stroke: #cc0000; stroke-opacity: 0.9"/>
     <use xlink:href="#m5367acb71d" x="626.037358" y="484.30844" style="fill: #ff6666; fill-opacity: 0.9; stroke: #cc0000; stroke-opacity: 0.9"/>
     <use xlink:href="#m5367acb71d" x="631.943926" y="502.538234" style="fill: #ff6666; fill-opacity: 0.9; stroke: #cc0000; stroke-opacity: 0.9"/>
     <use xlink:href="#m5367acb71d" x="642.873354" y="427.482735" style="fill: #ff6666; fill-opacity: 0.9; stroke: #cc0000; stroke-opacity: 0.9"/>
     <use xlink:href="#m5367acb71d" x="771.596808" y="343.430784" style="fill: #ff6666; fill-opacity: 0.9; stroke: #cc0000; stroke-opacity: 0.9"/>
     <use xlink:href="#m5367acb71d" x="618.217236" y="463.970754" style="fill: #ff6666; fill-opacity: 0.9; stroke: #cc0000; stroke-opacity: 0.9"/>
     <use xlink:href="#m5367acb71d" x="668.28915" y="457.539927" style="fill: #ff6666; fill-opacity: 0.9; stroke: #cc0000; stroke-opacity: 0.9"/>
     <use xlink:href="#m5367acb71d" x="622.914616" y="463.651629" style="fill: #ff6666; fill-opacity: 0.9; stroke: #cc0000; stroke-opacity: 0.9"/>
     <use xlink:href="#m5367acb71d" x="631.946422" y="491.869643" style="fill: #ff6666; fill-opacity: 0.9; stroke: #cc0000; stroke-opacity: 0.9"/>
     <use xlink:href="#m5367acb71d" x="667.060212" y="466.441534" style="fill: #ff6666; fill-opacity: 0.9; stroke: #cc0000; stroke-opacity: 0.9"/>
     <use xlink:href="#m5367acb71d" x="697.592663" y="428.218118" style="fill: #ff6666; fill-opacity: 0.9; stroke: #cc0000; stroke-opacity: 0.9"/>
     <use xlink:href="#m5367acb71d" x="619.598117" y="503.977078" style="fill: #ff6666; fill-opacity: 0.9; stroke: #cc0000; stroke-opacity: 0.9"/>
     <use xlink:href="#m5367acb71d" x="615.670025" y="497.996177" style="fill: #ff6666; fill-opacity: 0.9; stroke: #cc0000; stroke-opacity: 0.9"/>
     <use xlink:href="#m5367acb71d" x="642.614975" y="487.973003" style="fill: #ff6666; fill-opacity: 0.9; stroke: #cc0000; stroke-opacity: 0.9"/>
     <use xlink:href="#m5367acb71d" x="730.982652" y="415.298784" style="fill: #ff6666; fill-opacity: 0.9; stroke: #cc0000; stroke-opacity: 0.9"/>
     <use xlink:href="#m5367acb71d" x="679.724615" y="432.262437" style="fill: #ff6666; fill-opacity: 0.9; stroke: #cc0000; stroke-opacity: 0.9"/>
     <use xlink:href="#m5367acb71d" x="677.118524" y="459.806924" style="fill: #ff6666; fill-opacity: 0.9; stroke: #cc0000; stroke-opacity: 0.9"/>
     <use xlink:href="#m5367acb71d" x="678.357223" y="428.665355" style="fill: #ff6666; fill-opacity: 0.9; stroke: #cc0000; stroke-opacity: 0.9"/>
     <use xlink:href="#m5367acb71d" x="616.091765" y="498.362988" style="fill: #ff6666; fill-opacity: 0.9; stroke: #cc0000; stroke-opacity: 0.9"/>
     <use xlink:href="#m5367acb71d" x="877.104903" y="34.575455" style="fill: #ff6666; fill-opacity: 0.9; stroke: #cc0000; stroke-opacity: 0.9"/>
     <use xlink:href="#m5367acb71d" x="647.815458" y="448.328165" style="fill: #ff6666; fill-opacity: 0.9; stroke: #cc0000; stroke-opacity: 0.9"/>
     <use xlink:href="#m5367acb71d" x="659.878591" y="420.124861" style="fill: #ff6666; fill-opacity: 0.9; stroke: #cc0000; stroke-opacity: 0.9"/>
     <use xlink:href="#m5367acb71d" x="683.603617" y="466.435465" style="fill: #ff6666; fill-opacity: 0.9; stroke: #cc0000; stroke-opacity: 0.9"/>
     <use xlink:href="#m5367acb71d" x="661.70471" y="438.631952" style="fill: #ff6666; fill-opacity: 0.9; stroke: #cc0000; stroke-opacity: 0.9"/>
     <use xlink:href="#m5367acb71d" x="616.808678" y="484.071713" style="fill: #ff6666; fill-opacity: 0.9; stroke: #cc0000; stroke-opacity: 0.9"/>
     <use xlink:href="#m5367acb71d" x="696.73393" y="418.475266" style="fill: #ff6666; fill-opacity: 0.9; stroke: #cc0000; stroke-opacity: 0.9"/>
     <use xlink:href="#m5367acb71d" x="690.764556" y="419.220513" style="fill: #ff6666; fill-opacity: 0.9; stroke: #cc0000; stroke-opacity: 0.9"/>
     <use xlink:href="#m5367acb71d" x="623.05698" y="489.09363" style="fill: #ff6666; fill-opacity: 0.9; stroke: #cc0000; stroke-opacity: 0.9"/>
     <use xlink:href="#m5367acb71d" x="679.854165" y="413.90466" style="fill: #ff6666; fill-opacity: 0.9; stroke: #cc0000; stroke-opacity: 0.9"/>
     <use xlink:href="#m5367acb71d" x="660.656136" y="473.36734" style="fill: #ff6666; fill-opacity: 0.9; stroke: #cc0000; stroke-opacity: 0.9"/>
     <use xlink:href="#m5367acb71d" x="646.452709" y="452.058359" style="fill: #ff6666; fill-opacity: 0.9; stroke: #cc0000; stroke-opacity: 0.9"/>
     <use xlink:href="#m5367acb71d" x="623.99696" y="482.208539" style="fill: #ff6666; fill-opacity: 0.9; stroke: #cc0000; stroke-opacity: 0.9"/>
     <use xlink:href="#m5367acb71d" x="679.813641" y="412.501131" style="fill: #ff6666; fill-opacity: 0.9; stroke: #cc0000; stroke-opacity: 0.9"/>
     <use xlink:href="#m5367acb71d" x="679.738469" y="357.083082" style="fill: #ff6666; fill-opacity: 0.9; stroke: #cc0000; stroke-opacity: 0.9"/>
     <use xlink:href="#m5367acb71d" x="630.31311" y="471.570953" style="fill: #ff6666; fill-opacity: 0.9; stroke: #cc0000; stroke-opacity: 0.9"/>
     <use xlink:href="#m5367acb71d" x="604.407836" y="486.130761" style="fill: #ff6666; fill-opacity: 0.9; stroke: #cc0000; stroke-opacity: 0.9"/>
    </g>
   </g>
   <g id="matplotlib.axis_3">
    <g id="xtick_9">
     <g id="line2d_20">
      <g>
       <use xlink:href="#m9f47cc2dd8" x="616.137527" y="533.86" style="stroke: #000000; stroke-width: 0.8"/>
      </g>
     </g>
     <g id="text_20">
      <!-- −1 -->
      <g transform="translate(610.817996 547.80375) scale(0.1 -0.1)">
       <use xlink:href="#TimesNewRomanPSMT-2212"/>
       <use xlink:href="#TimesNewRomanPSMT-31" x="56.396484"/>
      </g>
     </g>
    </g>
    <g id="xtick_10">
     <g id="line2d_21">
      <g>
       <use xlink:href="#m9f47cc2dd8" x="671.024721" y="533.86" style="stroke: #000000; stroke-width: 0.8"/>
      </g>
     </g>
     <g id="text_21">
      <!-- 0 -->
      <g transform="translate(668.524721 547.80375) scale(0.1 -0.1)">
       <use xlink:href="#TimesNewRomanPSMT-30"/>
      </g>
     </g>
    </g>
    <g id="xtick_11">
     <g id="line2d_22">
      <g>
       <use xlink:href="#m9f47cc2dd8" x="725.911915" y="533.86" style="stroke: #000000; stroke-width: 0.8"/>
      </g>
     </g>
     <g id="text_22">
      <!-- 1 -->
      <g transform="translate(723.411915 547.80375) scale(0.1 -0.1)">
       <use xlink:href="#TimesNewRomanPSMT-31"/>
      </g>
     </g>
    </g>
    <g id="xtick_12">
     <g id="line2d_23">
      <g>
       <use xlink:href="#m9f47cc2dd8" x="780.79911" y="533.86" style="stroke: #000000; stroke-width: 0.8"/>
      </g>
     </g>
     <g id="text_23">
      <!-- 2 -->
      <g transform="translate(778.29911 547.80375) scale(0.1 -0.1)">
       <use xlink:href="#TimesNewRomanPSMT-32"/>
      </g>
     </g>
    </g>
    <g id="xtick_13">
     <g id="line2d_24">
      <g>
       <use xlink:href="#m9f47cc2dd8" x="835.686304" y="533.86" style="stroke: #000000; stroke-width: 0.8"/>
      </g>
     </g>
     <g id="text_24">
      <!-- 3 -->
      <g transform="translate(833.186304 547.80375) scale(0.1 -0.1)">
       <defs>
        <path id="TimesNewRomanPSMT-33" d="M 325 3431 
Q 506 3859 782 4092 
Q 1059 4325 1472 4325 
Q 1981 4325 2253 3994 
Q 2459 3747 2459 3466 
Q 2459 3003 1878 2509 
Q 2269 2356 2469 2072 
Q 2669 1788 2669 1403 
Q 2669 853 2319 450 
Q 1863 -75 997 -75 
Q 569 -75 414 31 
Q 259 138 259 259 
Q 259 350 332 419 
Q 406 488 509 488 
Q 588 488 669 463 
Q 722 447 909 348 
Q 1097 250 1169 231 
Q 1284 197 1416 197 
Q 1734 197 1970 444 
Q 2206 691 2206 1028 
Q 2206 1275 2097 1509 
Q 2016 1684 1919 1775 
Q 1784 1900 1550 2001 
Q 1316 2103 1072 2103 
L 972 2103 
L 972 2197 
Q 1219 2228 1467 2375 
Q 1716 2522 1828 2728 
Q 1941 2934 1941 3181 
Q 1941 3503 1739 3701 
Q 1538 3900 1238 3900 
Q 753 3900 428 3381 
L 325 3431 
z
" transform="scale(0.015625)"/>
       </defs>
       <use xlink:href="#TimesNewRomanPSMT-33"/>
      </g>
     </g>
    </g>
    <g id="xtick_14">
     <g id="line2d_25">
      <g>
       <use xlink:href="#m9f47cc2dd8" x="890.573499" y="533.86" style="stroke: #000000; stroke-width: 0.8"/>
      </g>
     </g>
     <g id="text_25">
      <!-- 4 -->
      <g transform="translate(888.073499 547.80375) scale(0.1 -0.1)">
       <defs>
        <path id="TimesNewRomanPSMT-34" d="M 2978 1563 
L 2978 1119 
L 2409 1119 
L 2409 0 
L 1894 0 
L 1894 1119 
L 100 1119 
L 100 1519 
L 2066 4325 
L 2409 4325 
L 2409 1563 
L 2978 1563 
z
M 1894 1563 
L 1894 3666 
L 406 1563 
L 1894 1563 
z
" transform="scale(0.015625)"/>
       </defs>
       <use xlink:href="#TimesNewRomanPSMT-34"/>
      </g>
     </g>
    </g>
    <g id="xtick_15">
     <g id="line2d_26">
      <g>
       <use xlink:href="#m9f47cc2dd8" x="945.460693" y="533.86" style="stroke: #000000; stroke-width: 0.8"/>
      </g>
     </g>
     <g id="text_26">
      <!-- 5 -->
      <g transform="translate(942.960693 547.80375) scale(0.1 -0.1)">
       <use xlink:href="#TimesNewRomanPSMT-35"/>
      </g>
     </g>
    </g>
    <g id="xtick_16">
     <g id="line2d_27">
      <g>
       <use xlink:href="#m9f47cc2dd8" x="1000.347887" y="533.86" style="stroke: #000000; stroke-width: 0.8"/>
      </g>
     </g>
     <g id="text_27">
      <!-- 6 -->
      <g transform="translate(997.847887 547.80375) scale(0.1 -0.1)">
       <defs>
        <path id="TimesNewRomanPSMT-36" d="M 2869 4325 
L 2869 4209 
Q 2456 4169 2195 4045 
Q 1934 3922 1679 3669 
Q 1425 3416 1258 3105 
Q 1091 2794 978 2366 
Q 1428 2675 1881 2675 
Q 2316 2675 2634 2325 
Q 2953 1975 2953 1425 
Q 2953 894 2631 456 
Q 2244 -75 1606 -75 
Q 1172 -75 869 213 
Q 275 772 275 1663 
Q 275 2231 503 2743 
Q 731 3256 1154 3653 
Q 1578 4050 1965 4187 
Q 2353 4325 2688 4325 
L 2869 4325 
z
M 925 2138 
Q 869 1716 869 1456 
Q 869 1156 980 804 
Q 1091 453 1309 247 
Q 1469 100 1697 100 
Q 1969 100 2183 356 
Q 2397 613 2397 1088 
Q 2397 1622 2184 2012 
Q 1972 2403 1581 2403 
Q 1463 2403 1327 2353 
Q 1191 2303 925 2138 
z
" transform="scale(0.015625)"/>
       </defs>
       <use xlink:href="#TimesNewRomanPSMT-36"/>
      </g>
     </g>
    </g>
    <g id="xtick_17">
     <g id="line2d_28">
      <g>
       <use xlink:href="#m9f47cc2dd8" x="1055.235082" y="533.86" style="stroke: #000000; stroke-width: 0.8"/>
      </g>
     </g>
     <g id="text_28">
      <!-- 7 -->
      <g transform="translate(1052.735082 547.80375) scale(0.1 -0.1)">
       <use xlink:href="#TimesNewRomanPSMT-37"/>
      </g>
     </g>
    </g>
    <g id="text_29">
     <!-- Predicted Ln(Dynamic Viscosity) -->
     <g transform="translate(758.641344 560.886562) scale(0.1 -0.1)">
      <use xlink:href="#TimesNewRomanPSMT-50"/>
      <use xlink:href="#TimesNewRomanPSMT-72" x="55.615234"/>
      <use xlink:href="#TimesNewRomanPSMT-65" x="88.916016"/>
      <use xlink:href="#TimesNewRomanPSMT-64" x="133.300781"/>
      <use xlink:href="#TimesNewRomanPSMT-69" x="183.300781"/>
      <use xlink:href="#TimesNewRomanPSMT-63" x="211.083984"/>
      <use xlink:href="#TimesNewRomanPSMT-74" x="255.46875"/>
      <use xlink:href="#TimesNewRomanPSMT-65" x="283.251953"/>
      <use xlink:href="#TimesNewRomanPSMT-64" x="327.636719"/>
      <use xlink:href="#TimesNewRomanPSMT-20" x="377.636719"/>
      <use xlink:href="#TimesNewRomanPSMT-4c" x="402.636719"/>
      <use xlink:href="#TimesNewRomanPSMT-6e" x="463.720703"/>
      <use xlink:href="#TimesNewRomanPSMT-28" x="513.720703"/>
      <use xlink:href="#TimesNewRomanPSMT-44" x="547.021484"/>
      <use xlink:href="#TimesNewRomanPSMT-79" x="619.238281"/>
      <use xlink:href="#TimesNewRomanPSMT-6e" x="669.238281"/>
      <use xlink:href="#TimesNewRomanPSMT-61" x="719.238281"/>
      <use xlink:href="#TimesNewRomanPSMT-6d" x="763.623047"/>
      <use xlink:href="#TimesNewRomanPSMT-69" x="841.40625"/>
      <use xlink:href="#TimesNewRomanPSMT-63" x="869.189453"/>
      <use xlink:href="#TimesNewRomanPSMT-20" x="913.574219"/>
      <use xlink:href="#TimesNewRomanPSMT-56" x="936.824219"/>
      <use xlink:href="#TimesNewRomanPSMT-69" x="1003.041016"/>
      <use xlink:href="#TimesNewRomanPSMT-73" x="1030.824219"/>
      <use xlink:href="#TimesNewRomanPSMT-63" x="1069.740234"/>
      <use xlink:href="#TimesNewRomanPSMT-6f" x="1114.125"/>
      <use xlink:href="#TimesNewRomanPSMT-73" x="1164.125"/>
      <use xlink:href="#TimesNewRomanPSMT-69" x="1203.041016"/>
      <use xlink:href="#TimesNewRomanPSMT-74" x="1230.824219"/>
      <use xlink:href="#TimesNewRomanPSMT-79" x="1258.607422"/>
      <use xlink:href="#TimesNewRomanPSMT-29" x="1308.607422"/>
     </g>
    </g>
   </g>
   <g id="matplotlib.axis_4">
    <g id="ytick_7">
     <g id="line2d_29">
      <g>
       <use xlink:href="#m619c07b0b6" x="582.274876" y="497.48439" style="stroke: #000000; stroke-width: 0.8"/>
      </g>
     </g>
     <g id="text_30">
      <!-- −1 -->
      <g transform="translate(564.635813 500.956265) scale(0.1 -0.1)">
       <use xlink:href="#TimesNewRomanPSMT-2212"/>
       <use xlink:href="#TimesNewRomanPSMT-31" x="56.396484"/>
      </g>
     </g>
    </g>
    <g id="ytick_8">
     <g id="line2d_30">
      <g>
       <use xlink:href="#m619c07b0b6" x="582.274876" y="438.523999" style="stroke: #000000; stroke-width: 0.8"/>
      </g>
     </g>
     <g id="text_31">
      <!-- 0 -->
      <g transform="translate(570.274876 441.995874) scale(0.1 -0.1)">
       <use xlink:href="#TimesNewRomanPSMT-30"/>
      </g>
     </g>
    </g>
    <g id="ytick_9">
     <g id="line2d_31">
      <g>
       <use xlink:href="#m619c07b0b6" x="582.274876" y="379.563608" style="stroke: #000000; stroke-width: 0.8"/>
      </g>
     </g>
     <g id="text_32">
      <!-- 1 -->
      <g transform="translate(570.274876 383.035483) scale(0.1 -0.1)">
       <use xlink:href="#TimesNewRomanPSMT-31"/>
      </g>
     </g>
    </g>
    <g id="ytick_10">
     <g id="line2d_32">
      <g>
       <use xlink:href="#m619c07b0b6" x="582.274876" y="320.603216" style="stroke: #000000; stroke-width: 0.8"/>
      </g>
     </g>
     <g id="text_33">
      <!-- 2 -->
      <g transform="translate(570.274876 324.075091) scale(0.1 -0.1)">
       <use xlink:href="#TimesNewRomanPSMT-32"/>
      </g>
     </g>
    </g>
    <g id="ytick_11">
     <g id="line2d_33">
      <g>
       <use xlink:href="#m619c07b0b6" x="582.274876" y="261.642825" style="stroke: #000000; stroke-width: 0.8"/>
      </g>
     </g>
     <g id="text_34">
      <!-- 3 -->
      <g transform="translate(570.274876 265.1147) scale(0.1 -0.1)">
       <use xlink:href="#TimesNewRomanPSMT-33"/>
      </g>
     </g>
    </g>
    <g id="ytick_12">
     <g id="line2d_34">
      <g>
       <use xlink:href="#m619c07b0b6" x="582.274876" y="202.682434" style="stroke: #000000; stroke-width: 0.8"/>
      </g>
     </g>
     <g id="text_35">
      <!-- 4 -->
      <g transform="translate(570.274876 206.154309) scale(0.1 -0.1)">
       <use xlink:href="#TimesNewRomanPSMT-34"/>
      </g>
     </g>
    </g>
    <g id="ytick_13">
     <g id="line2d_35">
      <g>
       <use xlink:href="#m619c07b0b6" x="582.274876" y="143.722042" style="stroke: #000000; stroke-width: 0.8"/>
      </g>
     </g>
     <g id="text_36">
      <!-- 5 -->
      <g transform="translate(570.274876 147.193917) scale(0.1 -0.1)">
       <use xlink:href="#TimesNewRomanPSMT-35"/>
      </g>
     </g>
    </g>
    <g id="ytick_14">
     <g id="line2d_36">
      <g>
       <use xlink:href="#m619c07b0b6" x="582.274876" y="84.761651" style="stroke: #000000; stroke-width: 0.8"/>
      </g>
     </g>
     <g id="text_37">
      <!-- 6 -->
      <g transform="translate(570.274876 88.233526) scale(0.1 -0.1)">
       <use xlink:href="#TimesNewRomanPSMT-36"/>
      </g>
     </g>
    </g>
    <g id="ytick_15">
     <g id="line2d_37">
      <g>
       <use xlink:href="#m619c07b0b6" x="582.274876" y="25.80126" style="stroke: #000000; stroke-width: 0.8"/>
      </g>
     </g>
     <g id="text_38">
      <!-- 7 -->
      <g transform="translate(570.274876 29.273135) scale(0.1 -0.1)">
       <use xlink:href="#TimesNewRomanPSMT-37"/>
      </g>
     </g>
    </g>
    <g id="text_39">
     <!-- Actual Ln(Dynamic Viscosity) -->
     <g transform="translate(558.478001 333.872188) rotate(-90) scale(0.1 -0.1)">
      <use xlink:href="#TimesNewRomanPSMT-41"/>
      <use xlink:href="#TimesNewRomanPSMT-63" x="72.216797"/>
      <use xlink:href="#TimesNewRomanPSMT-74" x="116.601562"/>
      <use xlink:href="#TimesNewRomanPSMT-75" x="144.384766"/>
      <use xlink:href="#TimesNewRomanPSMT-61" x="194.384766"/>
      <use xlink:href="#TimesNewRomanPSMT-6c" x="238.769531"/>
      <use xlink:href="#TimesNewRomanPSMT-20" x="266.552734"/>
      <use xlink:href="#TimesNewRomanPSMT-4c" x="291.552734"/>
      <use xlink:href="#TimesNewRomanPSMT-6e" x="352.636719"/>
      <use xlink:href="#TimesNewRomanPSMT-28" x="402.636719"/>
      <use xlink:href="#TimesNewRomanPSMT-44" x="435.9375"/>
      <use xlink:href="#TimesNewRomanPSMT-79" x="508.154297"/>
      <use xlink:href="#TimesNewRomanPSMT-6e" x="558.154297"/>
      <use xlink:href="#TimesNewRomanPSMT-61" x="608.154297"/>
      <use xlink:href="#TimesNewRomanPSMT-6d" x="652.539062"/>
      <use xlink:href="#TimesNewRomanPSMT-69" x="730.322266"/>
      <use xlink:href="#TimesNewRomanPSMT-63" x="758.105469"/>
      <use xlink:href="#TimesNewRomanPSMT-20" x="802.490234"/>
      <use xlink:href="#TimesNewRomanPSMT-56" x="825.740234"/>
      <use xlink:href="#TimesNewRomanPSMT-69" x="891.957031"/>
      <use xlink:href="#TimesNewRomanPSMT-73" x="919.740234"/>
      <use xlink:href="#TimesNewRomanPSMT-63" x="958.65625"/>
      <use xlink:href="#TimesNewRomanPSMT-6f" x="1003.041016"/>
      <use xlink:href="#TimesNewRomanPSMT-73" x="1053.041016"/>
      <use xlink:href="#TimesNewRomanPSMT-69" x="1091.957031"/>
      <use xlink:href="#TimesNewRomanPSMT-74" x="1119.740234"/>
      <use xlink:href="#TimesNewRomanPSMT-79" x="1147.523438"/>
      <use xlink:href="#TimesNewRomanPSMT-29" x="1197.523438"/>
     </g>
    </g>
   </g>
   <g id="line2d_38">
    <path d="M 604.407836 510.084545 
L 1047.06704 34.575455 
" clip-path="url(#pd89bf7143f)" style="fill: none; stroke-dasharray: 5.55,2.4; stroke-dashoffset: 0; stroke: #ff0000; stroke-width: 1.5"/>
   </g>
   <g id="patch_9">
    <path d="M 582.274876 533.86 
L 582.274876 10.8 
" style="fill: none; stroke: #000000; stroke-width: 0.8; stroke-linejoin: miter; stroke-linecap: square"/>
   </g>
   <g id="patch_10">
    <path d="M 1069.2 533.86 
L 1069.2 10.8 
" style="fill: none; stroke: #000000; stroke-width: 0.8; stroke-linejoin: miter; stroke-linecap: square"/>
   </g>
   <g id="patch_11">
    <path d="M 582.274876 533.86 
L 1069.2 533.86 
" style="fill: none; stroke: #000000; stroke-width: 0.8; stroke-linejoin: miter; stroke-linecap: square"/>
   </g>
   <g id="patch_12">
    <path d="M 582.274876 10.8 
L 1069.2 10.8 
" style="fill: none; stroke: #000000; stroke-width: 0.8; stroke-linejoin: miter; stroke-linecap: square"/>
   </g>
   <g id="legend_2">
    <g id="patch_13">
     <path d="M 589.274876 47.078125 
L 699.037376 47.078125 
Q 701.037376 47.078125 701.037376 45.078125 
L 701.037376 17.8 
Q 701.037376 15.8 699.037376 15.8 
L 589.274876 15.8 
Q 587.274876 15.8 587.274876 17.8 
L 587.274876 45.078125 
Q 587.274876 47.078125 589.274876 47.078125 
z
" style="fill: #ffffff; opacity: 0.8; stroke: #cccccc; stroke-linejoin: miter"/>
    </g>
    <g id="PathCollection_4">
     <g>
      <use xlink:href="#m5367acb71d" x="601.274876" y="24.175" style="fill: #ff6666; fill-opacity: 0.9; stroke: #cc0000; stroke-opacity: 0.9"/>
     </g>
    </g>
    <g id="text_40">
     <!-- Predicted vs Actual -->
     <g transform="translate(619.274876 26.8) scale(0.1 -0.1)">
      <use xlink:href="#TimesNewRomanPSMT-50"/>
      <use xlink:href="#TimesNewRomanPSMT-72" x="55.615234"/>
      <use xlink:href="#TimesNewRomanPSMT-65" x="88.916016"/>
      <use xlink:href="#TimesNewRomanPSMT-64" x="133.300781"/>
      <use xlink:href="#TimesNewRomanPSMT-69" x="183.300781"/>
      <use xlink:href="#TimesNewRomanPSMT-63" x="211.083984"/>
      <use xlink:href="#TimesNewRomanPSMT-74" x="255.46875"/>
      <use xlink:href="#TimesNewRomanPSMT-65" x="283.251953"/>
      <use xlink:href="#TimesNewRomanPSMT-64" x="327.636719"/>
      <use xlink:href="#TimesNewRomanPSMT-20" x="377.636719"/>
      <use xlink:href="#TimesNewRomanPSMT-76" x="402.636719"/>
      <use xlink:href="#TimesNewRomanPSMT-73" x="452.636719"/>
      <use xlink:href="#TimesNewRomanPSMT-20" x="491.552734"/>
      <use xlink:href="#TimesNewRomanPSMT-41" x="511.052734"/>
      <use xlink:href="#TimesNewRomanPSMT-63" x="583.269531"/>
      <use xlink:href="#TimesNewRomanPSMT-74" x="627.654297"/>
      <use xlink:href="#TimesNewRomanPSMT-75" x="655.4375"/>
      <use xlink:href="#TimesNewRomanPSMT-61" x="705.4375"/>
      <use xlink:href="#TimesNewRomanPSMT-6c" x="749.822266"/>
     </g>
    </g>
    <g id="line2d_39">
     <path d="M 591.274876 37.439062 
L 601.274876 37.439062 
L 611.274876 37.439062 
" style="fill: none; stroke-dasharray: 5.55,2.4; stroke-dashoffset: 0; stroke: #ff0000; stroke-width: 1.5"/>
    </g>
    <g id="text_41">
     <!-- Perfect Fit -->
     <g transform="translate(619.274876 40.939062) scale(0.1 -0.1)">
      <use xlink:href="#TimesNewRomanPSMT-50"/>
      <use xlink:href="#TimesNewRomanPSMT-65" x="55.615234"/>
      <use xlink:href="#TimesNewRomanPSMT-72" x="100"/>
      <use xlink:href="#TimesNewRomanPSMT-66" x="133.300781"/>
      <use xlink:href="#TimesNewRomanPSMT-65" x="166.601562"/>
      <use xlink:href="#TimesNewRomanPSMT-63" x="210.986328"/>
      <use xlink:href="#TimesNewRomanPSMT-74" x="255.371094"/>
      <use xlink:href="#TimesNewRomanPSMT-20" x="283.154297"/>
      <use xlink:href="#TimesNewRomanPSMT-46" x="308.154297"/>
      <use xlink:href="#TimesNewRomanPSMT-69" x="363.769531"/>
      <use xlink:href="#TimesNewRomanPSMT-74" x="391.552734"/>
     </g>
    </g>
   </g>
  </g>
 </g>
 <defs>
  <clipPath id="p9c6d0490ca">
   <rect x="50.33" y="10.8" width="486.925124" height="523.06"/>
  </clipPath>
  <clipPath id="pd89bf7143f">
   <rect x="582.274876" y="10.8" width="486.925124" height="523.06"/>
  </clipPath>
 </defs>
</svg>
